<?xml version="1.0" encoding="utf-8" standalone="no"?>
<!DOCTYPE svg PUBLIC "-//W3C//DTD SVG 1.1//EN"
  "http://www.w3.org/Graphics/SVG/1.1/DTD/svg11.dtd">
<svg xmlns:xlink="http://www.w3.org/1999/xlink" width="460.8pt" height="345.6pt" viewBox="0 0 460.8 345.6" xmlns="http://www.w3.org/2000/svg" version="1.1">
 <metadata>
  <rdf:RDF xmlns:dc="http://purl.org/dc/elements/1.1/" xmlns:cc="http://creativecommons.org/ns#" xmlns:rdf="http://www.w3.org/1999/02/22-rdf-syntax-ns#">
   <cc:Work>
    <dc:type rdf:resource="http://purl.org/dc/dcmitype/StillImage"/>
    <dc:date>2026-05-09T11:37:54.965756</dc:date>
    <dc:format>image/svg+xml</dc:format>
    <dc:creator>
     <cc:Agent>
      <dc:title>Matplotlib v3.10.9, https://matplotlib.org/</dc:title>
     </cc:Agent>
    </dc:creator>
   </cc:Work>
  </rdf:RDF>
 </metadata>
 <defs>
  <style type="text/css">*{stroke-linejoin: round; stroke-linecap: butt}</style>
 </defs>
 <g id="figure_1">
  <g id="patch_1">
   <path d="M 0 345.6 
L 460.8 345.6 
L 460.8 0 
L 0 0 
z
" style="fill: #ffffff"/>
  </g>
  <g id="axes_1">
   <g id="patch_2">
    <path d="M 33.64 293.1695 
L 450 293.1695 
L 450 10.8 
L 33.64 10.8 
z
" style="fill: #ffffff"/>
   </g>
   <g id="matplotlib.axis_1">
    <g id="xtick_1">
     <g id="line2d_1">
      <path d="M 52.565455 293.1695 
L 52.565455 10.8 
" clip-path="url(#p563003e8eb)" style="fill: none; stroke: #b0b0b0; stroke-width: 0.8; stroke-linecap: square"/>
     </g>
     <g id="line2d_2">
      <defs>
       <path id="m747fb8d9ed" d="M 0 0 
L 0 3.5 
" style="stroke: #000000; stroke-width: 0.8"/>
      </defs>
      <g>
       <use xlink:href="#m747fb8d9ed" x="52.565455" y="293.1695" style="stroke: #000000; stroke-width: 0.8"/>
      </g>
     </g>
     <g id="text_1">
      <!-- −4 -->
      <g transform="translate(45.194361 307.767938) scale(0.1 -0.1)">
       <defs>
        <path id="DejaVuSans-2212" d="M 678 2272 
L 4684 2272 
L 4684 1741 
L 678 1741 
L 678 2272 
z
" transform="scale(0.015625)"/>
        <path id="DejaVuSans-34" d="M 2419 4116 
L 825 1625 
L 2419 1625 
L 2419 4116 
z
M 2253 4666 
L 3047 4666 
L 3047 1625 
L 3713 1625 
L 3713 1100 
L 3047 1100 
L 3047 0 
L 2419 0 
L 2419 1100 
L 313 1100 
L 313 1709 
L 2253 4666 
z
" transform="scale(0.015625)"/>
       </defs>
       <use xlink:href="#DejaVuSans-2212"/>
       <use xlink:href="#DejaVuSans-34" transform="translate(83.789062 0)"/>
      </g>
     </g>
    </g>
    <g id="xtick_2">
     <g id="line2d_3">
      <path d="M 99.879091 293.1695 
L 99.879091 10.8 
" clip-path="url(#p563003e8eb)" style="fill: none; stroke: #b0b0b0; stroke-width: 0.8; stroke-linecap: square"/>
     </g>
     <g id="line2d_4">
      <g>
       <use xlink:href="#m747fb8d9ed" x="99.879091" y="293.1695" style="stroke: #000000; stroke-width: 0.8"/>
      </g>
     </g>
     <g id="text_2">
      <!-- −3 -->
      <g transform="translate(92.507997 307.767938) scale(0.1 -0.1)">
       <defs>
        <path id="DejaVuSans-33" d="M 2597 2516 
Q 3050 2419 3304 2112 
Q 3559 1806 3559 1356 
Q 3559 666 3084 287 
Q 2609 -91 1734 -91 
Q 1441 -91 1130 -33 
Q 819 25 488 141 
L 488 750 
Q 750 597 1062 519 
Q 1375 441 1716 441 
Q 2309 441 2620 675 
Q 2931 909 2931 1356 
Q 2931 1769 2642 2001 
Q 2353 2234 1838 2234 
L 1294 2234 
L 1294 2753 
L 1863 2753 
Q 2328 2753 2575 2939 
Q 2822 3125 2822 3475 
Q 2822 3834 2567 4026 
Q 2313 4219 1838 4219 
Q 1578 4219 1281 4162 
Q 984 4106 628 3988 
L 628 4550 
Q 988 4650 1302 4700 
Q 1616 4750 1894 4750 
Q 2613 4750 3031 4423 
Q 3450 4097 3450 3541 
Q 3450 3153 3228 2886 
Q 3006 2619 2597 2516 
z
" transform="scale(0.015625)"/>
       </defs>
       <use xlink:href="#DejaVuSans-2212"/>
       <use xlink:href="#DejaVuSans-33" transform="translate(83.789062 0)"/>
      </g>
     </g>
    </g>
    <g id="xtick_3">
     <g id="line2d_5">
      <path d="M 147.192727 293.1695 
L 147.192727 10.8 
" clip-path="url(#p563003e8eb)" style="fill: none; stroke: #b0b0b0; stroke-width: 0.8; stroke-linecap: square"/>
     </g>
     <g id="line2d_6">
      <g>
       <use xlink:href="#m747fb8d9ed" x="147.192727" y="293.1695" style="stroke: #000000; stroke-width: 0.8"/>
      </g>
     </g>
     <g id="text_3">
      <!-- −2 -->
      <g transform="translate(139.821634 307.767938) scale(0.1 -0.1)">
       <defs>
        <path id="DejaVuSans-32" d="M 1228 531 
L 3431 531 
L 3431 0 
L 469 0 
L 469 531 
Q 828 903 1448 1529 
Q 2069 2156 2228 2338 
Q 2531 2678 2651 2914 
Q 2772 3150 2772 3378 
Q 2772 3750 2511 3984 
Q 2250 4219 1831 4219 
Q 1534 4219 1204 4116 
Q 875 4013 500 3803 
L 500 4441 
Q 881 4594 1212 4672 
Q 1544 4750 1819 4750 
Q 2544 4750 2975 4387 
Q 3406 4025 3406 3419 
Q 3406 3131 3298 2873 
Q 3191 2616 2906 2266 
Q 2828 2175 2409 1742 
Q 1991 1309 1228 531 
z
" transform="scale(0.015625)"/>
       </defs>
       <use xlink:href="#DejaVuSans-2212"/>
       <use xlink:href="#DejaVuSans-32" transform="translate(83.789062 0)"/>
      </g>
     </g>
    </g>
    <g id="xtick_4">
     <g id="line2d_7">
      <path d="M 194.506364 293.1695 
L 194.506364 10.8 
" clip-path="url(#p563003e8eb)" style="fill: none; stroke: #b0b0b0; stroke-width: 0.8; stroke-linecap: square"/>
     </g>
     <g id="line2d_8">
      <g>
       <use xlink:href="#m747fb8d9ed" x="194.506364" y="293.1695" style="stroke: #000000; stroke-width: 0.8"/>
      </g>
     </g>
     <g id="text_4">
      <!-- −1 -->
      <g transform="translate(187.13527 307.767938) scale(0.1 -0.1)">
       <defs>
        <path id="DejaVuSans-31" d="M 794 531 
L 1825 531 
L 1825 4091 
L 703 3866 
L 703 4441 
L 1819 4666 
L 2450 4666 
L 2450 531 
L 3481 531 
L 3481 0 
L 794 0 
L 794 531 
z
" transform="scale(0.015625)"/>
       </defs>
       <use xlink:href="#DejaVuSans-2212"/>
       <use xlink:href="#DejaVuSans-31" transform="translate(83.789062 0)"/>
      </g>
     </g>
    </g>
    <g id="xtick_5">
     <g id="line2d_9">
      <path d="M 241.82 293.1695 
L 241.82 10.8 
" clip-path="url(#p563003e8eb)" style="fill: none; stroke: #b0b0b0; stroke-width: 0.8; stroke-linecap: square"/>
     </g>
     <g id="line2d_10">
      <g>
       <use xlink:href="#m747fb8d9ed" x="241.82" y="293.1695" style="stroke: #000000; stroke-width: 0.8"/>
      </g>
     </g>
     <g id="text_5">
      <!-- 0 -->
      <g transform="translate(238.63875 307.767938) scale(0.1 -0.1)">
       <defs>
        <path id="DejaVuSans-30" d="M 2034 4250 
Q 1547 4250 1301 3770 
Q 1056 3291 1056 2328 
Q 1056 1369 1301 889 
Q 1547 409 2034 409 
Q 2525 409 2770 889 
Q 3016 1369 3016 2328 
Q 3016 3291 2770 3770 
Q 2525 4250 2034 4250 
z
M 2034 4750 
Q 2819 4750 3233 4129 
Q 3647 3509 3647 2328 
Q 3647 1150 3233 529 
Q 2819 -91 2034 -91 
Q 1250 -91 836 529 
Q 422 1150 422 2328 
Q 422 3509 836 4129 
Q 1250 4750 2034 4750 
z
" transform="scale(0.015625)"/>
       </defs>
       <use xlink:href="#DejaVuSans-30"/>
      </g>
     </g>
    </g>
    <g id="xtick_6">
     <g id="line2d_11">
      <path d="M 289.133636 293.1695 
L 289.133636 10.8 
" clip-path="url(#p563003e8eb)" style="fill: none; stroke: #b0b0b0; stroke-width: 0.8; stroke-linecap: square"/>
     </g>
     <g id="line2d_12">
      <g>
       <use xlink:href="#m747fb8d9ed" x="289.133636" y="293.1695" style="stroke: #000000; stroke-width: 0.8"/>
      </g>
     </g>
     <g id="text_6">
      <!-- 1 -->
      <g transform="translate(285.952386 307.767938) scale(0.1 -0.1)">
       <use xlink:href="#DejaVuSans-31"/>
      </g>
     </g>
    </g>
    <g id="xtick_7">
     <g id="line2d_13">
      <path d="M 336.447273 293.1695 
L 336.447273 10.8 
" clip-path="url(#p563003e8eb)" style="fill: none; stroke: #b0b0b0; stroke-width: 0.8; stroke-linecap: square"/>
     </g>
     <g id="line2d_14">
      <g>
       <use xlink:href="#m747fb8d9ed" x="336.447273" y="293.1695" style="stroke: #000000; stroke-width: 0.8"/>
      </g>
     </g>
     <g id="text_7">
      <!-- 2 -->
      <g transform="translate(333.266023 307.767938) scale(0.1 -0.1)">
       <use xlink:href="#DejaVuSans-32"/>
      </g>
     </g>
    </g>
    <g id="xtick_8">
     <g id="line2d_15">
      <path d="M 383.760909 293.1695 
L 383.760909 10.8 
" clip-path="url(#p563003e8eb)" style="fill: none; stroke: #b0b0b0; stroke-width: 0.8; stroke-linecap: square"/>
     </g>
     <g id="line2d_16">
      <g>
       <use xlink:href="#m747fb8d9ed" x="383.760909" y="293.1695" style="stroke: #000000; stroke-width: 0.8"/>
      </g>
     </g>
     <g id="text_8">
      <!-- 3 -->
      <g transform="translate(380.579659 307.767938) scale(0.1 -0.1)">
       <use xlink:href="#DejaVuSans-33"/>
      </g>
     </g>
    </g>
    <g id="xtick_9">
     <g id="line2d_17">
      <path d="M 431.074545 293.1695 
L 431.074545 10.8 
" clip-path="url(#p563003e8eb)" style="fill: none; stroke: #b0b0b0; stroke-width: 0.8; stroke-linecap: square"/>
     </g>
     <g id="line2d_18">
      <g>
       <use xlink:href="#m747fb8d9ed" x="431.074545" y="293.1695" style="stroke: #000000; stroke-width: 0.8"/>
      </g>
     </g>
     <g id="text_9">
      <!-- 4 -->
      <g transform="translate(427.893295 307.767938) scale(0.1 -0.1)">
       <use xlink:href="#DejaVuSans-34"/>
      </g>
     </g>
    </g>
    <g id="text_10">
     <!-- $\frac{\mu}{t}$ -->
     <g transform="translate(238.05 326.457625) scale(0.13 -0.13)">
      <defs>
       <path id="DejaVuSans-Oblique-3bc" d="M -84 -1331 
L 856 3500 
L 1434 3500 
L 1009 1322 
Q 997 1256 987 1175 
Q 978 1094 978 1013 
Q 978 722 1161 565 
Q 1344 409 1684 409 
Q 2147 409 2431 671 
Q 2716 934 2816 1459 
L 3213 3500 
L 3788 3500 
L 3266 809 
Q 3253 750 3248 706 
Q 3244 663 3244 628 
Q 3244 531 3283 486 
Q 3322 441 3406 441 
Q 3438 441 3492 456 
Q 3547 472 3647 513 
L 3559 50 
Q 3422 -19 3297 -55 
Q 3172 -91 3053 -91 
Q 2847 -91 2730 40 
Q 2613 172 2613 403 
Q 2438 153 2195 31 
Q 1953 -91 1625 -91 
Q 1334 -91 1117 43 
Q 900 178 831 397 
L 494 -1331 
L -84 -1331 
z
" transform="scale(0.015625)"/>
       <path id="DejaVuSans-Oblique-74" d="M 2706 3500 
L 2619 3053 
L 1472 3053 
L 1100 1153 
Q 1081 1047 1072 975 
Q 1063 903 1063 863 
Q 1063 663 1183 572 
Q 1303 481 1569 481 
L 2150 481 
L 2053 0 
L 1503 0 
Q 991 0 739 200 
Q 488 400 488 806 
Q 488 878 497 964 
Q 506 1050 525 1153 
L 897 3053 
L 409 3053 
L 500 3500 
L 978 3500 
L 1172 4494 
L 1747 4494 
L 1556 3500 
L 2706 3500 
z
" transform="scale(0.015625)"/>
      </defs>
      <use xlink:href="#DejaVuSans-Oblique-3bc" transform="translate(0 58.71875) scale(0.7)"/>
      <use xlink:href="#DejaVuSans-Oblique-74" transform="translate(9 -36.242188) scale(0.7)"/>
      <path d="M 0 19.160938 
L 0 25.410938 
L 44.536133 25.410938 
L 44.536133 19.160938 
L 0 19.160938 
z
"/>
     </g>
    </g>
   </g>
   <g id="matplotlib.axis_2">
    <g id="ytick_1">
     <g id="line2d_19">
      <path d="M 33.64 280.334523 
L 450 280.334523 
" clip-path="url(#p563003e8eb)" style="fill: none; stroke: #b0b0b0; stroke-width: 0.8; stroke-linecap: square"/>
     </g>
     <g id="line2d_20">
      <defs>
       <path id="mef6aeed391" d="M 0 0 
L -3.5 0 
" style="stroke: #000000; stroke-width: 0.8"/>
      </defs>
      <g>
       <use xlink:href="#mef6aeed391" x="33.64" y="280.334523" style="stroke: #000000; stroke-width: 0.8"/>
      </g>
     </g>
     <g id="text_11">
      <!-- 0.0 -->
      <g transform="translate(10.736875 284.133741) scale(0.1 -0.1)">
       <defs>
        <path id="DejaVuSans-2e" d="M 684 794 
L 1344 794 
L 1344 0 
L 684 0 
L 684 794 
z
" transform="scale(0.015625)"/>
       </defs>
       <use xlink:href="#DejaVuSans-30"/>
       <use xlink:href="#DejaVuSans-2e" transform="translate(63.623047 0)"/>
       <use xlink:href="#DejaVuSans-30" transform="translate(95.410156 0)"/>
      </g>
     </g>
    </g>
    <g id="ytick_2">
     <g id="line2d_21">
      <path d="M 33.64 228.994614 
L 450 228.994614 
" clip-path="url(#p563003e8eb)" style="fill: none; stroke: #b0b0b0; stroke-width: 0.8; stroke-linecap: square"/>
     </g>
     <g id="line2d_22">
      <g>
       <use xlink:href="#mef6aeed391" x="33.64" y="228.994614" style="stroke: #000000; stroke-width: 0.8"/>
      </g>
     </g>
     <g id="text_12">
      <!-- 0.2 -->
      <g transform="translate(10.736875 232.793832) scale(0.1 -0.1)">
       <use xlink:href="#DejaVuSans-30"/>
       <use xlink:href="#DejaVuSans-2e" transform="translate(63.623047 0)"/>
       <use xlink:href="#DejaVuSans-32" transform="translate(95.410156 0)"/>
      </g>
     </g>
    </g>
    <g id="ytick_3">
     <g id="line2d_23">
      <path d="M 33.64 177.654705 
L 450 177.654705 
" clip-path="url(#p563003e8eb)" style="fill: none; stroke: #b0b0b0; stroke-width: 0.8; stroke-linecap: square"/>
     </g>
     <g id="line2d_24">
      <g>
       <use xlink:href="#mef6aeed391" x="33.64" y="177.654705" style="stroke: #000000; stroke-width: 0.8"/>
      </g>
     </g>
     <g id="text_13">
      <!-- 0.4 -->
      <g transform="translate(10.736875 181.453923) scale(0.1 -0.1)">
       <use xlink:href="#DejaVuSans-30"/>
       <use xlink:href="#DejaVuSans-2e" transform="translate(63.623047 0)"/>
       <use xlink:href="#DejaVuSans-34" transform="translate(95.410156 0)"/>
      </g>
     </g>
    </g>
    <g id="ytick_4">
     <g id="line2d_25">
      <path d="M 33.64 126.314795 
L 450 126.314795 
" clip-path="url(#p563003e8eb)" style="fill: none; stroke: #b0b0b0; stroke-width: 0.8; stroke-linecap: square"/>
     </g>
     <g id="line2d_26">
      <g>
       <use xlink:href="#mef6aeed391" x="33.64" y="126.314795" style="stroke: #000000; stroke-width: 0.8"/>
      </g>
     </g>
     <g id="text_14">
      <!-- 0.6 -->
      <g transform="translate(10.736875 130.114014) scale(0.1 -0.1)">
       <defs>
        <path id="DejaVuSans-36" d="M 2113 2584 
Q 1688 2584 1439 2293 
Q 1191 2003 1191 1497 
Q 1191 994 1439 701 
Q 1688 409 2113 409 
Q 2538 409 2786 701 
Q 3034 994 3034 1497 
Q 3034 2003 2786 2293 
Q 2538 2584 2113 2584 
z
M 3366 4563 
L 3366 3988 
Q 3128 4100 2886 4159 
Q 2644 4219 2406 4219 
Q 1781 4219 1451 3797 
Q 1122 3375 1075 2522 
Q 1259 2794 1537 2939 
Q 1816 3084 2150 3084 
Q 2853 3084 3261 2657 
Q 3669 2231 3669 1497 
Q 3669 778 3244 343 
Q 2819 -91 2113 -91 
Q 1303 -91 875 529 
Q 447 1150 447 2328 
Q 447 3434 972 4092 
Q 1497 4750 2381 4750 
Q 2619 4750 2861 4703 
Q 3103 4656 3366 4563 
z
" transform="scale(0.015625)"/>
       </defs>
       <use xlink:href="#DejaVuSans-30"/>
       <use xlink:href="#DejaVuSans-2e" transform="translate(63.623047 0)"/>
       <use xlink:href="#DejaVuSans-36" transform="translate(95.410156 0)"/>
      </g>
     </g>
    </g>
    <g id="ytick_5">
     <g id="line2d_27">
      <path d="M 33.64 74.974886 
L 450 74.974886 
" clip-path="url(#p563003e8eb)" style="fill: none; stroke: #b0b0b0; stroke-width: 0.8; stroke-linecap: square"/>
     </g>
     <g id="line2d_28">
      <g>
       <use xlink:href="#mef6aeed391" x="33.64" y="74.974886" style="stroke: #000000; stroke-width: 0.8"/>
      </g>
     </g>
     <g id="text_15">
      <!-- 0.8 -->
      <g transform="translate(10.736875 78.774105) scale(0.1 -0.1)">
       <defs>
        <path id="DejaVuSans-38" d="M 2034 2216 
Q 1584 2216 1326 1975 
Q 1069 1734 1069 1313 
Q 1069 891 1326 650 
Q 1584 409 2034 409 
Q 2484 409 2743 651 
Q 3003 894 3003 1313 
Q 3003 1734 2745 1975 
Q 2488 2216 2034 2216 
z
M 1403 2484 
Q 997 2584 770 2862 
Q 544 3141 544 3541 
Q 544 4100 942 4425 
Q 1341 4750 2034 4750 
Q 2731 4750 3128 4425 
Q 3525 4100 3525 3541 
Q 3525 3141 3298 2862 
Q 3072 2584 2669 2484 
Q 3125 2378 3379 2068 
Q 3634 1759 3634 1313 
Q 3634 634 3220 271 
Q 2806 -91 2034 -91 
Q 1263 -91 848 271 
Q 434 634 434 1313 
Q 434 1759 690 2068 
Q 947 2378 1403 2484 
z
M 1172 3481 
Q 1172 3119 1398 2916 
Q 1625 2713 2034 2713 
Q 2441 2713 2670 2916 
Q 2900 3119 2900 3481 
Q 2900 3844 2670 4047 
Q 2441 4250 2034 4250 
Q 1625 4250 1398 4047 
Q 1172 3844 1172 3481 
z
" transform="scale(0.015625)"/>
       </defs>
       <use xlink:href="#DejaVuSans-30"/>
       <use xlink:href="#DejaVuSans-2e" transform="translate(63.623047 0)"/>
       <use xlink:href="#DejaVuSans-38" transform="translate(95.410156 0)"/>
      </g>
     </g>
    </g>
    <g id="ytick_6">
     <g id="line2d_29">
      <path d="M 33.64 23.634977 
L 450 23.634977 
" clip-path="url(#p563003e8eb)" style="fill: none; stroke: #b0b0b0; stroke-width: 0.8; stroke-linecap: square"/>
     </g>
     <g id="line2d_30">
      <g>
       <use xlink:href="#mef6aeed391" x="33.64" y="23.634977" style="stroke: #000000; stroke-width: 0.8"/>
      </g>
     </g>
     <g id="text_16">
      <!-- 1.0 -->
      <g transform="translate(10.736875 27.434196) scale(0.1 -0.1)">
       <use xlink:href="#DejaVuSans-31"/>
       <use xlink:href="#DejaVuSans-2e" transform="translate(63.623047 0)"/>
       <use xlink:href="#DejaVuSans-30" transform="translate(95.410156 0)"/>
      </g>
     </g>
    </g>
   </g>
   <g id="line2d_31">
    <path d="M 52.565455 280.334523 
L 56.350545 280.334523 
L 60.135636 280.334523 
L 63.920727 280.334523 
L 67.705818 280.334523 
L 71.490909 280.334523 
L 75.276 280.334523 
L 79.061091 280.334523 
L 82.846182 280.334523 
L 86.631273 280.334523 
L 90.416364 280.334523 
L 94.201455 280.334523 
L 97.986545 280.334523 
L 101.771636 280.334523 
L 105.556727 280.334523 
L 109.341818 280.334523 
L 113.126909 280.334522 
L 116.912 280.334519 
L 120.697091 280.334501 
L 124.482182 280.334396 
L 128.267273 280.333726 
L 132.052364 280.329004 
L 135.837455 280.290895 
L 139.622545 279.902419 
L 143.407636 273.712999 
L 147.192727 158.141879 
L 150.977818 31.369704 
L 154.762909 24.088021 
L 158.548 23.669592 
L 162.333091 23.637704 
L 166.118182 23.63518 
L 169.903273 23.634991 
L 173.688364 23.634978 
L 177.473455 23.634977 
L 181.258545 23.634977 
L 185.043636 23.634977 
L 188.828727 23.634977 
L 192.613818 23.634977 
L 196.398909 23.634977 
L 200.184 23.634977 
L 203.969091 23.634977 
L 207.754182 23.634977 
L 211.539273 23.634977 
L 215.324364 23.634977 
L 219.109455 23.634977 
L 222.894545 23.634977 
L 226.679636 23.634977 
L 230.464727 23.634977 
L 234.249818 23.634977 
L 238.034909 23.634977 
L 241.82 23.634977 
L 245.605091 23.634977 
L 249.390182 23.634977 
L 253.175273 23.634977 
L 256.960364 23.634977 
L 260.745455 23.634977 
L 264.530545 23.634977 
L 268.315636 23.634977 
L 272.100727 23.634977 
L 275.885818 23.634977 
L 279.670909 23.634977 
L 283.456 23.634977 
L 287.241091 23.634977 
L 291.026182 23.634977 
L 294.811273 23.634977 
L 298.596364 23.634977 
L 302.381455 23.634977 
L 306.166545 23.634977 
L 309.951636 23.634978 
L 313.736727 23.634991 
L 317.521818 23.63518 
L 321.306909 23.637704 
L 325.092 23.669592 
L 328.877091 24.088021 
L 332.662182 31.369704 
L 336.447273 158.141879 
L 340.232364 273.712999 
L 344.017455 279.902419 
L 347.802545 280.290895 
L 351.587636 280.329004 
L 355.372727 280.333726 
L 359.157818 280.334396 
L 362.942909 280.334501 
L 366.728 280.334519 
L 370.513091 280.334522 
L 374.298182 280.334523 
L 378.083273 280.334523 
L 381.868364 280.334523 
L 385.653455 280.334523 
L 389.438545 280.334523 
L 393.223636 280.334523 
L 397.008727 280.334523 
L 400.793818 280.334523 
L 404.578909 280.334523 
L 408.364 280.334523 
L 412.149091 280.334523 
L 415.934182 280.334523 
L 419.719273 280.334523 
L 423.504364 280.334523 
L 427.289455 280.334523 
L 431.074545 280.334523 
" clip-path="url(#p563003e8eb)" style="fill: none; stroke: #1f77b4; stroke-width: 2; stroke-linecap: square"/>
   </g>
   <g id="line2d_32">
    <path d="M 52.565455 280.334523 
L 56.350545 280.334523 
L 60.135636 280.334523 
L 63.920727 280.334523 
L 67.705818 280.334523 
L 71.490909 280.334523 
L 75.276 280.334523 
L 79.061091 280.334523 
L 82.846182 280.334523 
L 86.631273 280.334523 
L 90.416364 280.334523 
L 94.201455 280.334523 
L 97.986545 280.334523 
L 101.771636 280.334523 
L 105.556727 280.334523 
L 109.341818 280.334522 
L 113.126909 280.334521 
L 116.912 280.334515 
L 120.697091 280.334483 
L 124.482182 280.334298 
L 128.267273 280.333132 
L 132.052364 280.325092 
L 135.837455 280.2621 
L 139.622545 279.651739 
L 143.407636 271.041309 
L 147.192727 153.111648 
L 150.977818 32.584879 
L 154.762909 24.179561 
L 158.548 23.676144 
L 162.333091 23.63817 
L 166.118182 23.635211 
L 169.903273 23.634993 
L 173.688364 23.634978 
L 177.473455 23.634977 
L 181.258545 23.634977 
L 185.043636 23.634977 
L 188.828727 23.634977 
L 192.613818 23.634977 
L 196.398909 23.634977 
L 200.184 23.634977 
L 203.969091 23.634977 
L 207.754182 23.634977 
L 211.539273 23.634977 
L 215.324364 23.634977 
L 219.109455 23.634977 
L 222.894545 23.634977 
L 226.679636 23.634977 
L 230.464727 23.634977 
L 234.249818 23.634977 
L 238.034909 23.634977 
L 241.82 23.634977 
L 245.605091 23.634977 
L 249.390182 23.634977 
L 253.175273 23.634977 
L 256.960364 23.634977 
L 260.745455 23.634977 
L 264.530545 23.634977 
L 268.315636 23.634977 
L 272.100727 23.634977 
L 275.885818 23.634977 
L 279.670909 23.634977 
L 283.456 23.634977 
L 287.241091 23.634977 
L 291.026182 23.634977 
L 294.811273 23.634977 
L 298.596364 23.634977 
L 302.381455 23.634977 
L 306.166545 23.634977 
L 309.951636 23.634978 
L 313.736727 23.634993 
L 317.521818 23.635211 
L 321.306909 23.63817 
L 325.092 23.676144 
L 328.877091 24.179561 
L 332.662182 32.584879 
L 336.447273 153.111648 
L 340.232364 271.041309 
L 344.017455 279.651739 
L 347.802545 280.2621 
L 351.587636 280.325092 
L 355.372727 280.333132 
L 359.157818 280.334298 
L 362.942909 280.334483 
L 366.728 280.334515 
L 370.513091 280.334521 
L 374.298182 280.334522 
L 378.083273 280.334523 
L 381.868364 280.334523 
L 385.653455 280.334523 
L 389.438545 280.334523 
L 393.223636 280.334523 
L 397.008727 280.334523 
L 400.793818 280.334523 
L 404.578909 280.334523 
L 408.364 280.334523 
L 412.149091 280.334523 
L 415.934182 280.334523 
L 419.719273 280.334523 
L 423.504364 280.334523 
L 427.289455 280.334523 
L 431.074545 280.334523 
" clip-path="url(#p563003e8eb)" style="fill: none; stroke-dasharray: 7.4,3.2; stroke-dashoffset: 0; stroke: #aec7e8; stroke-width: 2"/>
   </g>
   <g id="patch_3">
    <path d="M 33.64 293.1695 
L 33.64 10.8 
" style="fill: none; stroke: #000000; stroke-width: 0.8; stroke-linejoin: miter; stroke-linecap: square"/>
   </g>
   <g id="patch_4">
    <path d="M 450 293.1695 
L 450 10.8 
" style="fill: none; stroke: #000000; stroke-width: 0.8; stroke-linejoin: miter; stroke-linecap: square"/>
   </g>
   <g id="patch_5">
    <path d="M 33.64 293.1695 
L 450 293.1695 
" style="fill: none; stroke: #000000; stroke-width: 0.8; stroke-linejoin: miter; stroke-linecap: square"/>
   </g>
   <g id="patch_6">
    <path d="M 33.64 10.8 
L 450 10.8 
" style="fill: none; stroke: #000000; stroke-width: 0.8; stroke-linejoin: miter; stroke-linecap: square"/>
   </g>
   <g id="legend_1">
    <g id="patch_7">
     <path d="M 345.09 71.38 
L 440.9 71.38 
Q 443.5 71.38 443.5 68.78 
L 443.5 19.9 
Q 443.5 17.3 440.9 17.3 
L 345.09 17.3 
Q 342.49 17.3 342.49 19.9 
L 342.49 68.78 
Q 342.49 71.38 345.09 71.38 
z
" style="fill: #ffffff; opacity: 0.8; stroke: #cccccc; stroke-linejoin: miter"/>
    </g>
    <g id="line2d_33">
     <path d="M 347.69 30.3 
L 360.69 30.3 
L 373.69 30.3 
" style="fill: none; stroke: #1f77b4; stroke-width: 2; stroke-linecap: square"/>
    </g>
    <g id="text_17">
     <!-- $\frac{4}{\pi}arg(\mathcal{Z} _{\mathcal{T}})$ -->
     <g transform="translate(384.09 34.85) scale(0.13 -0.13)">
      <defs>
       <path id="DejaVuSans-Oblique-3c0" d="M 584 3500 
L 3938 3500 
L 3825 2925 
L 3384 2925 
L 2966 775 
Q 2922 550 2981 450 
Q 3038 353 3209 353 
Q 3256 353 3325 363 
Q 3397 369 3419 372 
L 3338 -44 
Q 3222 -84 3103 -103 
Q 2981 -122 2866 -122 
Q 2491 -122 2388 81 
Q 2284 288 2391 838 
L 2797 2925 
L 1506 2925 
L 938 0 
L 350 0 
L 919 2925 
L 472 2925 
L 584 3500 
z
" transform="scale(0.015625)"/>
       <path id="DejaVuSans-Oblique-61" d="M 3438 1997 
L 3047 0 
L 2472 0 
L 2578 531 
Q 2325 219 2001 64 
Q 1678 -91 1281 -91 
Q 834 -91 548 182 
Q 263 456 263 884 
Q 263 1497 752 1853 
Q 1241 2209 2100 2209 
L 2900 2209 
L 2931 2363 
Q 2938 2388 2941 2417 
Q 2944 2447 2944 2509 
Q 2944 2788 2717 2942 
Q 2491 3097 2081 3097 
Q 1800 3097 1504 3025 
Q 1209 2953 897 2809 
L 997 3341 
Q 1322 3463 1633 3523 
Q 1944 3584 2234 3584 
Q 2853 3584 3176 3315 
Q 3500 3047 3500 2534 
Q 3500 2431 3484 2292 
Q 3469 2153 3438 1997 
z
M 2816 1759 
L 2241 1759 
Q 1534 1759 1195 1570 
Q 856 1381 856 984 
Q 856 709 1029 553 
Q 1203 397 1509 397 
Q 1978 397 2328 733 
Q 2678 1069 2791 1631 
L 2816 1759 
z
" transform="scale(0.015625)"/>
       <path id="DejaVuSans-Oblique-72" d="M 2853 2969 
Q 2766 3016 2653 3041 
Q 2541 3066 2413 3066 
Q 1953 3066 1609 2717 
Q 1266 2369 1153 1784 
L 800 0 
L 225 0 
L 909 3500 
L 1484 3500 
L 1375 2956 
Q 1603 3259 1920 3421 
Q 2238 3584 2597 3584 
Q 2691 3584 2781 3573 
Q 2872 3563 2963 3538 
L 2853 2969 
z
" transform="scale(0.015625)"/>
       <path id="DejaVuSans-Oblique-67" d="M 3816 3500 
L 3219 434 
Q 3047 -456 2561 -893 
Q 2075 -1331 1253 -1331 
Q 950 -1331 690 -1286 
Q 431 -1241 206 -1147 
L 313 -588 
Q 525 -725 762 -790 
Q 1000 -856 1269 -856 
Q 1816 -856 2167 -557 
Q 2519 -259 2631 300 
L 2681 563 
Q 2441 288 2122 144 
Q 1803 0 1434 0 
Q 903 0 598 351 
Q 294 703 294 1319 
Q 294 1803 478 2267 
Q 663 2731 997 3091 
Q 1219 3328 1514 3456 
Q 1809 3584 2131 3584 
Q 2484 3584 2746 3420 
Q 3009 3256 3138 2956 
L 3238 3500 
L 3816 3500 
z
M 2950 2216 
Q 2950 2641 2750 2872 
Q 2550 3103 2181 3103 
Q 1953 3103 1747 3012 
Q 1541 2922 1394 2759 
Q 1156 2491 1023 2127 
Q 891 1763 891 1375 
Q 891 944 1092 712 
Q 1294 481 1672 481 
Q 2219 481 2584 976 
Q 2950 1472 2950 2216 
z
" transform="scale(0.015625)"/>
       <path id="DejaVuSans-28" d="M 1984 4856 
Q 1566 4138 1362 3434 
Q 1159 2731 1159 2009 
Q 1159 1288 1364 580 
Q 1569 -128 1984 -844 
L 1484 -844 
Q 1016 -109 783 600 
Q 550 1309 550 2009 
Q 550 2706 781 3412 
Q 1013 4119 1484 4856 
L 1984 4856 
z
" transform="scale(0.015625)"/>
       <path id="STIXNonUnicode-Italic-e246" d="M 4570 4237 
L 4531 4102 
Q 4346 4077 3962 3616 
L 2938 2400 
L 3642 2400 
L 3533 2157 
L 2726 2157 
Q 2650 2074 2445 1840 
Q 2240 1606 2150 1504 
Q 2061 1402 1881 1206 
Q 1702 1011 1584 889 
Q 1466 768 1306 611 
Q 1146 454 998 326 
Q 1062 339 1197 339 
Q 1562 339 1923 188 
Q 2285 38 2627 -112 
Q 2970 -262 3290 -262 
Q 3629 -262 3846 -96 
Q 4064 70 4141 294 
L 4282 294 
Q 4186 -6 4026 -198 
Q 3866 -390 3638 -473 
Q 3411 -557 3232 -579 
Q 3053 -602 2797 -602 
Q 2528 -602 2233 -522 
Q 1939 -442 1580 -304 
Q 1222 -166 1043 -115 
Q 627 0 301 0 
L 243 0 
L 262 122 
Q 704 339 1037 691 
Q 1722 1389 2387 2157 
L 1670 2157 
L 1766 2400 
L 2598 2400 
L 3578 3571 
L 3533 3603 
Q 3392 3590 3315 3590 
Q 3053 3590 2768 3744 
Q 2483 3898 2285 3898 
Q 1926 3898 1625 3664 
Q 1325 3430 1171 3206 
L 1043 3277 
Q 1350 3744 1814 3997 
Q 2278 4250 2746 4250 
Q 2880 4250 3200 4179 
Q 3520 4109 3674 4109 
Q 3866 4109 4138 4173 
Q 4410 4237 4570 4237 
z
" transform="scale(0.015625)"/>
       <path id="STIXNonUnicode-Italic-e240" d="M 4557 4614 
L 4672 4518 
Q 4134 3635 2746 3578 
L 2054 1197 
Q 1933 787 1801 537 
Q 1670 288 1484 173 
Q 1299 58 1136 29 
Q 973 0 691 0 
L 749 154 
Q 934 154 1059 326 
Q 1184 499 1286 870 
L 1882 2944 
Q 2042 3520 2042 3635 
Q 2042 3731 1974 3785 
Q 1907 3840 1818 3840 
Q 1498 3840 1110 3664 
Q 723 3488 390 3053 
L 262 3142 
Q 678 3744 1212 3993 
Q 1747 4243 2733 4243 
Q 2867 4243 3078 4224 
Q 3290 4205 3379 4205 
Q 4288 4205 4557 4614 
z
" transform="scale(0.015625)"/>
       <path id="DejaVuSans-29" d="M 513 4856 
L 1013 4856 
Q 1481 4119 1714 3412 
Q 1947 2706 1947 2009 
Q 1947 1309 1714 600 
Q 1481 -109 1013 -844 
L 513 -844 
Q 928 -128 1133 580 
Q 1338 1288 1338 2009 
Q 1338 2731 1133 3434 
Q 928 4138 513 4856 
z
" transform="scale(0.015625)"/>
      </defs>
      <use xlink:href="#DejaVuSans-34" transform="translate(0 43.965625) scale(0.7)"/>
      <use xlink:href="#DejaVuSans-Oblique-3c0" transform="translate(1 -25.565625) scale(0.7)"/>
      <use xlink:href="#DejaVuSans-Oblique-61" transform="translate(57.036133 0.16875)"/>
      <use xlink:href="#DejaVuSans-Oblique-72" transform="translate(118.31543 0.16875)"/>
      <use xlink:href="#DejaVuSans-Oblique-67" transform="translate(159.428711 0.16875)"/>
      <use xlink:href="#DejaVuSans-28" transform="translate(222.905273 0.16875)"/>
      <use xlink:href="#STIXNonUnicode-Italic-e246" transform="translate(261.918945 0.16875)"/>
      <use xlink:href="#STIXNonUnicode-Italic-e240" transform="translate(338.075958 -16.2375) scale(0.7)"/>
      <use xlink:href="#DejaVuSans-29" transform="translate(376.440329 0.16875)"/>
      <path d="M 0 18.965625 
L 0 25.215625 
L 44.536133 25.215625 
L 44.536133 18.965625 
L 0 18.965625 
z
"/>
     </g>
    </g>
    <g id="line2d_34">
     <path d="M 347.69 56.43 
L 360.69 56.43 
L 373.69 56.43 
" style="fill: none; stroke-dasharray: 7.4,3.2; stroke-dashoffset: 0; stroke: #aec7e8; stroke-width: 2"/>
    </g>
    <g id="text_18">
     <!-- $-\frac{Im(Tr(\Gamma\tilde\Gamma)}{2}$ -->
     <g transform="translate(384.09 60.98) scale(0.13 -0.13)">
      <defs>
       <path id="DejaVuSans-Oblique-49" d="M 1081 4666 
L 1716 4666 
L 806 0 
L 172 0 
L 1081 4666 
z
" transform="scale(0.015625)"/>
       <path id="DejaVuSans-Oblique-6d" d="M 5747 2113 
L 5338 0 
L 4763 0 
L 5166 2094 
Q 5191 2228 5203 2325 
Q 5216 2422 5216 2491 
Q 5216 2772 5059 2928 
Q 4903 3084 4622 3084 
Q 4203 3084 3875 2770 
Q 3547 2456 3450 1953 
L 3066 0 
L 2491 0 
L 2900 2094 
Q 2925 2209 2937 2307 
Q 2950 2406 2950 2484 
Q 2950 2769 2794 2926 
Q 2638 3084 2363 3084 
Q 1938 3084 1609 2770 
Q 1281 2456 1184 1953 
L 800 0 
L 225 0 
L 909 3500 
L 1484 3500 
L 1375 2956 
Q 1609 3263 1923 3423 
Q 2238 3584 2597 3584 
Q 2978 3584 3223 3384 
Q 3469 3184 3519 2828 
Q 3781 3197 4126 3390 
Q 4472 3584 4856 3584 
Q 5306 3584 5551 3325 
Q 5797 3066 5797 2591 
Q 5797 2488 5784 2364 
Q 5772 2241 5747 2113 
z
" transform="scale(0.015625)"/>
       <path id="DejaVuSans-Oblique-54" d="M 378 4666 
L 4325 4666 
L 4225 4134 
L 2559 4134 
L 1759 0 
L 1125 0 
L 1925 4134 
L 275 4134 
L 378 4666 
z
" transform="scale(0.015625)"/>
       <path id="DejaVuSans-393" d="M 628 0 
L 628 4666 
L 3531 4666 
L 3531 4134 
L 1259 4134 
L 1259 0 
L 628 0 
z
" transform="scale(0.015625)"/>
       <path id="DejaVuSans-303" d="M -1621 4281 
L -1799 4453 
Q -1867 4516 -1919 4545 
Q -1971 4575 -2011 4575 
Q -2130 4575 -2186 4461 
Q -2242 4347 -2249 4091 
L -2639 4091 
Q -2633 4513 -2473 4742 
Q -2314 4972 -2030 4972 
Q -1911 4972 -1811 4928 
Q -1711 4884 -1596 4781 
L -1417 4609 
Q -1349 4547 -1297 4517 
Q -1246 4488 -1205 4488 
Q -1086 4488 -1030 4602 
Q -974 4716 -967 4972 
L -577 4972 
Q -583 4550 -742 4320 
Q -902 4091 -1186 4091 
Q -1305 4091 -1405 4134 
Q -1505 4178 -1621 4281 
z
" transform="scale(0.015625)"/>
      </defs>
      <use xlink:href="#DejaVuSans-2212" transform="translate(0 0.551562)"/>
      <use xlink:href="#DejaVuSans-Oblique-49" transform="translate(83.789062 53.579688) scale(0.7)"/>
      <use xlink:href="#DejaVuSans-Oblique-6d" transform="translate(104.433594 53.579688) scale(0.7)"/>
      <use xlink:href="#DejaVuSans-28" transform="translate(172.62207 53.579688) scale(0.7)"/>
      <use xlink:href="#DejaVuSans-Oblique-54" transform="translate(199.931641 53.579688) scale(0.7)"/>
      <use xlink:href="#DejaVuSans-Oblique-72" transform="translate(242.69043 53.579688) scale(0.7)"/>
      <use xlink:href="#DejaVuSans-28" transform="translate(271.469727 53.579688) scale(0.7)"/>
      <use xlink:href="#DejaVuSans-393" transform="translate(298.779297 53.579688) scale(0.7)"/>
      <use xlink:href="#DejaVuSans-303" transform="translate(375.622461 68.629688) scale(0.7)"/>
      <use xlink:href="#DejaVuSans-393" transform="translate(337.77832 53.579688) scale(0.7)"/>
      <use xlink:href="#DejaVuSans-29" transform="translate(376.777344 53.579688) scale(0.7)"/>
      <use xlink:href="#DejaVuSans-32" transform="translate(221.789062 -38.854688) scale(0.7)"/>
      <path d="M 83.789062 19.348438 
L 83.789062 25.598438 
L 404.086914 25.598438 
L 404.086914 19.348438 
L 83.789062 19.348438 
z
"/>
     </g>
    </g>
   </g>
  </g>
 </g>
 <defs>
  <clipPath id="p563003e8eb">
   <rect x="33.64" y="10.8" width="416.36" height="282.3695"/>
  </clipPath>
 </defs>
</svg>
