<?xml version="1.0" encoding="utf-8" standalone="no"?>
<!DOCTYPE svg PUBLIC "-//W3C//DTD SVG 1.1//EN"
  "http://www.w3.org/Graphics/SVG/1.1/DTD/svg11.dtd">
<svg xmlns:xlink="http://www.w3.org/1999/xlink" width="460.8pt" height="345.6pt" viewBox="0 0 460.8 345.6" xmlns="http://www.w3.org/2000/svg" version="1.1">
 <metadata>
  <rdf:RDF xmlns:dc="http://purl.org/dc/elements/1.1/" xmlns:cc="http://creativecommons.org/ns#" xmlns:rdf="http://www.w3.org/1999/02/22-rdf-syntax-ns#">
   <cc:Work>
    <dc:type rdf:resource="http://purl.org/dc/dcmitype/StillImage"/>
    <dc:date>2026-05-09T11:37:55.045269</dc:date>
    <dc:format>image/svg+xml</dc:format>
    <dc:creator>
     <cc:Agent>
      <dc:title>Matplotlib v3.10.9, https://matplotlib.org/</dc:title>
     </cc:Agent>
    </dc:creator>
   </cc:Work>
  </rdf:RDF>
 </metadata>
 <defs>
  <style type="text/css">*{stroke-linejoin: round; stroke-linecap: butt}</style>
 </defs>
 <g id="figure_1">
  <g id="patch_1">
   <path d="M 0 345.6 
L 460.8 345.6 
L 460.8 0 
L 0 0 
z
" style="fill: #ffffff"/>
  </g>
  <g id="axes_1">
   <g id="patch_2">
    <path d="M 42.01 301.48 
L 450 301.48 
L 450 10.8 
L 42.01 10.8 
z
" style="fill: #ffffff"/>
   </g>
   <g id="matplotlib.axis_1">
    <g id="xtick_1">
     <g id="line2d_1">
      <path d="M 60.555 301.48 
L 60.555 10.8 
" clip-path="url(#pef669fe25c)" style="fill: none; stroke: #b0b0b0; stroke-width: 0.8; stroke-linecap: square"/>
     </g>
     <g id="line2d_2">
      <defs>
       <path id="mf00d3d32ee" d="M 0 0 
L 0 3.5 
" style="stroke: #000000; stroke-width: 0.8"/>
      </defs>
      <g>
       <use xlink:href="#mf00d3d32ee" x="60.555" y="301.48" style="stroke: #000000; stroke-width: 0.8"/>
      </g>
     </g>
     <g id="text_1">
      <!-- −4 -->
      <g transform="translate(53.183906 316.078437) scale(0.1 -0.1)">
       <defs>
        <path id="DejaVuSans-2212" d="M 678 2272 
L 4684 2272 
L 4684 1741 
L 678 1741 
L 678 2272 
z
" transform="scale(0.015625)"/>
        <path id="DejaVuSans-34" d="M 2419 4116 
L 825 1625 
L 2419 1625 
L 2419 4116 
z
M 2253 4666 
L 3047 4666 
L 3047 1625 
L 3713 1625 
L 3713 1100 
L 3047 1100 
L 3047 0 
L 2419 0 
L 2419 1100 
L 313 1100 
L 313 1709 
L 2253 4666 
z
" transform="scale(0.015625)"/>
       </defs>
       <use xlink:href="#DejaVuSans-2212"/>
       <use xlink:href="#DejaVuSans-34" transform="translate(83.789062 0)"/>
      </g>
     </g>
    </g>
    <g id="xtick_2">
     <g id="line2d_3">
      <path d="M 106.9175 301.48 
L 106.9175 10.8 
" clip-path="url(#pef669fe25c)" style="fill: none; stroke: #b0b0b0; stroke-width: 0.8; stroke-linecap: square"/>
     </g>
     <g id="line2d_4">
      <g>
       <use xlink:href="#mf00d3d32ee" x="106.9175" y="301.48" style="stroke: #000000; stroke-width: 0.8"/>
      </g>
     </g>
     <g id="text_2">
      <!-- −3 -->
      <g transform="translate(99.546406 316.078437) scale(0.1 -0.1)">
       <defs>
        <path id="DejaVuSans-33" d="M 2597 2516 
Q 3050 2419 3304 2112 
Q 3559 1806 3559 1356 
Q 3559 666 3084 287 
Q 2609 -91 1734 -91 
Q 1441 -91 1130 -33 
Q 819 25 488 141 
L 488 750 
Q 750 597 1062 519 
Q 1375 441 1716 441 
Q 2309 441 2620 675 
Q 2931 909 2931 1356 
Q 2931 1769 2642 2001 
Q 2353 2234 1838 2234 
L 1294 2234 
L 1294 2753 
L 1863 2753 
Q 2328 2753 2575 2939 
Q 2822 3125 2822 3475 
Q 2822 3834 2567 4026 
Q 2313 4219 1838 4219 
Q 1578 4219 1281 4162 
Q 984 4106 628 3988 
L 628 4550 
Q 988 4650 1302 4700 
Q 1616 4750 1894 4750 
Q 2613 4750 3031 4423 
Q 3450 4097 3450 3541 
Q 3450 3153 3228 2886 
Q 3006 2619 2597 2516 
z
" transform="scale(0.015625)"/>
       </defs>
       <use xlink:href="#DejaVuSans-2212"/>
       <use xlink:href="#DejaVuSans-33" transform="translate(83.789062 0)"/>
      </g>
     </g>
    </g>
    <g id="xtick_3">
     <g id="line2d_5">
      <path d="M 153.28 301.48 
L 153.28 10.8 
" clip-path="url(#pef669fe25c)" style="fill: none; stroke: #b0b0b0; stroke-width: 0.8; stroke-linecap: square"/>
     </g>
     <g id="line2d_6">
      <g>
       <use xlink:href="#mf00d3d32ee" x="153.28" y="301.48" style="stroke: #000000; stroke-width: 0.8"/>
      </g>
     </g>
     <g id="text_3">
      <!-- −2 -->
      <g transform="translate(145.908906 316.078437) scale(0.1 -0.1)">
       <defs>
        <path id="DejaVuSans-32" d="M 1228 531 
L 3431 531 
L 3431 0 
L 469 0 
L 469 531 
Q 828 903 1448 1529 
Q 2069 2156 2228 2338 
Q 2531 2678 2651 2914 
Q 2772 3150 2772 3378 
Q 2772 3750 2511 3984 
Q 2250 4219 1831 4219 
Q 1534 4219 1204 4116 
Q 875 4013 500 3803 
L 500 4441 
Q 881 4594 1212 4672 
Q 1544 4750 1819 4750 
Q 2544 4750 2975 4387 
Q 3406 4025 3406 3419 
Q 3406 3131 3298 2873 
Q 3191 2616 2906 2266 
Q 2828 2175 2409 1742 
Q 1991 1309 1228 531 
z
" transform="scale(0.015625)"/>
       </defs>
       <use xlink:href="#DejaVuSans-2212"/>
       <use xlink:href="#DejaVuSans-32" transform="translate(83.789062 0)"/>
      </g>
     </g>
    </g>
    <g id="xtick_4">
     <g id="line2d_7">
      <path d="M 199.6425 301.48 
L 199.6425 10.8 
" clip-path="url(#pef669fe25c)" style="fill: none; stroke: #b0b0b0; stroke-width: 0.8; stroke-linecap: square"/>
     </g>
     <g id="line2d_8">
      <g>
       <use xlink:href="#mf00d3d32ee" x="199.6425" y="301.48" style="stroke: #000000; stroke-width: 0.8"/>
      </g>
     </g>
     <g id="text_4">
      <!-- −1 -->
      <g transform="translate(192.271406 316.078437) scale(0.1 -0.1)">
       <defs>
        <path id="DejaVuSans-31" d="M 794 531 
L 1825 531 
L 1825 4091 
L 703 3866 
L 703 4441 
L 1819 4666 
L 2450 4666 
L 2450 531 
L 3481 531 
L 3481 0 
L 794 0 
L 794 531 
z
" transform="scale(0.015625)"/>
       </defs>
       <use xlink:href="#DejaVuSans-2212"/>
       <use xlink:href="#DejaVuSans-31" transform="translate(83.789062 0)"/>
      </g>
     </g>
    </g>
    <g id="xtick_5">
     <g id="line2d_9">
      <path d="M 246.005 301.48 
L 246.005 10.8 
" clip-path="url(#pef669fe25c)" style="fill: none; stroke: #b0b0b0; stroke-width: 0.8; stroke-linecap: square"/>
     </g>
     <g id="line2d_10">
      <g>
       <use xlink:href="#mf00d3d32ee" x="246.005" y="301.48" style="stroke: #000000; stroke-width: 0.8"/>
      </g>
     </g>
     <g id="text_5">
      <!-- 0 -->
      <g transform="translate(242.82375 316.078437) scale(0.1 -0.1)">
       <defs>
        <path id="DejaVuSans-30" d="M 2034 4250 
Q 1547 4250 1301 3770 
Q 1056 3291 1056 2328 
Q 1056 1369 1301 889 
Q 1547 409 2034 409 
Q 2525 409 2770 889 
Q 3016 1369 3016 2328 
Q 3016 3291 2770 3770 
Q 2525 4250 2034 4250 
z
M 2034 4750 
Q 2819 4750 3233 4129 
Q 3647 3509 3647 2328 
Q 3647 1150 3233 529 
Q 2819 -91 2034 -91 
Q 1250 -91 836 529 
Q 422 1150 422 2328 
Q 422 3509 836 4129 
Q 1250 4750 2034 4750 
z
" transform="scale(0.015625)"/>
       </defs>
       <use xlink:href="#DejaVuSans-30"/>
      </g>
     </g>
    </g>
    <g id="xtick_6">
     <g id="line2d_11">
      <path d="M 292.3675 301.48 
L 292.3675 10.8 
" clip-path="url(#pef669fe25c)" style="fill: none; stroke: #b0b0b0; stroke-width: 0.8; stroke-linecap: square"/>
     </g>
     <g id="line2d_12">
      <g>
       <use xlink:href="#mf00d3d32ee" x="292.3675" y="301.48" style="stroke: #000000; stroke-width: 0.8"/>
      </g>
     </g>
     <g id="text_6">
      <!-- 1 -->
      <g transform="translate(289.18625 316.078437) scale(0.1 -0.1)">
       <use xlink:href="#DejaVuSans-31"/>
      </g>
     </g>
    </g>
    <g id="xtick_7">
     <g id="line2d_13">
      <path d="M 338.73 301.48 
L 338.73 10.8 
" clip-path="url(#pef669fe25c)" style="fill: none; stroke: #b0b0b0; stroke-width: 0.8; stroke-linecap: square"/>
     </g>
     <g id="line2d_14">
      <g>
       <use xlink:href="#mf00d3d32ee" x="338.73" y="301.48" style="stroke: #000000; stroke-width: 0.8"/>
      </g>
     </g>
     <g id="text_7">
      <!-- 2 -->
      <g transform="translate(335.54875 316.078437) scale(0.1 -0.1)">
       <use xlink:href="#DejaVuSans-32"/>
      </g>
     </g>
    </g>
    <g id="xtick_8">
     <g id="line2d_15">
      <path d="M 385.0925 301.48 
L 385.0925 10.8 
" clip-path="url(#pef669fe25c)" style="fill: none; stroke: #b0b0b0; stroke-width: 0.8; stroke-linecap: square"/>
     </g>
     <g id="line2d_16">
      <g>
       <use xlink:href="#mf00d3d32ee" x="385.0925" y="301.48" style="stroke: #000000; stroke-width: 0.8"/>
      </g>
     </g>
     <g id="text_8">
      <!-- 3 -->
      <g transform="translate(381.91125 316.078437) scale(0.1 -0.1)">
       <use xlink:href="#DejaVuSans-33"/>
      </g>
     </g>
    </g>
    <g id="xtick_9">
     <g id="line2d_17">
      <path d="M 431.455 301.48 
L 431.455 10.8 
" clip-path="url(#pef669fe25c)" style="fill: none; stroke: #b0b0b0; stroke-width: 0.8; stroke-linecap: square"/>
     </g>
     <g id="line2d_18">
      <g>
       <use xlink:href="#mf00d3d32ee" x="431.455" y="301.48" style="stroke: #000000; stroke-width: 0.8"/>
      </g>
     </g>
     <g id="text_9">
      <!-- 4 -->
      <g transform="translate(428.27375 316.078437) scale(0.1 -0.1)">
       <use xlink:href="#DejaVuSans-34"/>
      </g>
     </g>
    </g>
    <g id="text_10">
     <!-- $\mu /t$ -->
     <g transform="translate(239.155 329.73625) scale(0.1 -0.1)">
      <defs>
       <path id="DejaVuSans-Oblique-3bc" d="M -84 -1331 
L 856 3500 
L 1434 3500 
L 1009 1322 
Q 997 1256 987 1175 
Q 978 1094 978 1013 
Q 978 722 1161 565 
Q 1344 409 1684 409 
Q 2147 409 2431 671 
Q 2716 934 2816 1459 
L 3213 3500 
L 3788 3500 
L 3266 809 
Q 3253 750 3248 706 
Q 3244 663 3244 628 
Q 3244 531 3283 486 
Q 3322 441 3406 441 
Q 3438 441 3492 456 
Q 3547 472 3647 513 
L 3559 50 
Q 3422 -19 3297 -55 
Q 3172 -91 3053 -91 
Q 2847 -91 2730 40 
Q 2613 172 2613 403 
Q 2438 153 2195 31 
Q 1953 -91 1625 -91 
Q 1334 -91 1117 43 
Q 900 178 831 397 
L 494 -1331 
L -84 -1331 
z
" transform="scale(0.015625)"/>
       <path id="DejaVuSans-2f" d="M 1625 4666 
L 2156 4666 
L 531 -594 
L 0 -594 
L 1625 4666 
z
" transform="scale(0.015625)"/>
       <path id="DejaVuSans-Oblique-74" d="M 2706 3500 
L 2619 3053 
L 1472 3053 
L 1100 1153 
Q 1081 1047 1072 975 
Q 1063 903 1063 863 
Q 1063 663 1183 572 
Q 1303 481 1569 481 
L 2150 481 
L 2053 0 
L 1503 0 
Q 991 0 739 200 
Q 488 400 488 806 
Q 488 878 497 964 
Q 506 1050 525 1153 
L 897 3053 
L 409 3053 
L 500 3500 
L 978 3500 
L 1172 4494 
L 1747 4494 
L 1556 3500 
L 2706 3500 
z
" transform="scale(0.015625)"/>
      </defs>
      <use xlink:href="#DejaVuSans-Oblique-3bc" transform="translate(0 0.09375)"/>
      <use xlink:href="#DejaVuSans-2f" transform="translate(63.623047 0.09375)"/>
      <use xlink:href="#DejaVuSans-Oblique-74" transform="translate(97.314453 0.09375)"/>
     </g>
    </g>
   </g>
   <g id="matplotlib.axis_2">
    <g id="ytick_1">
     <g id="line2d_19">
      <path d="M 42.01 280.351827 
L 450 280.351827 
" clip-path="url(#pef669fe25c)" style="fill: none; stroke: #b0b0b0; stroke-width: 0.8; stroke-linecap: square"/>
     </g>
     <g id="line2d_20">
      <defs>
       <path id="m4472cd3f75" d="M 0 0 
L -3.5 0 
" style="stroke: #000000; stroke-width: 0.8"/>
      </defs>
      <g>
       <use xlink:href="#m4472cd3f75" x="42.01" y="280.351827" style="stroke: #000000; stroke-width: 0.8"/>
      </g>
     </g>
     <g id="text_11">
      <!-- −1.5 -->
      <g transform="translate(10.727187 284.151046) scale(0.1 -0.1)">
       <defs>
        <path id="DejaVuSans-2e" d="M 684 794 
L 1344 794 
L 1344 0 
L 684 0 
L 684 794 
z
" transform="scale(0.015625)"/>
        <path id="DejaVuSans-35" d="M 691 4666 
L 3169 4666 
L 3169 4134 
L 1269 4134 
L 1269 2991 
Q 1406 3038 1543 3061 
Q 1681 3084 1819 3084 
Q 2600 3084 3056 2656 
Q 3513 2228 3513 1497 
Q 3513 744 3044 326 
Q 2575 -91 1722 -91 
Q 1428 -91 1123 -41 
Q 819 9 494 109 
L 494 744 
Q 775 591 1075 516 
Q 1375 441 1709 441 
Q 2250 441 2565 725 
Q 2881 1009 2881 1497 
Q 2881 1984 2565 2268 
Q 2250 2553 1709 2553 
Q 1456 2553 1204 2497 
Q 953 2441 691 2322 
L 691 4666 
z
" transform="scale(0.015625)"/>
       </defs>
       <use xlink:href="#DejaVuSans-2212"/>
       <use xlink:href="#DejaVuSans-31" transform="translate(83.789062 0)"/>
       <use xlink:href="#DejaVuSans-2e" transform="translate(147.412109 0)"/>
       <use xlink:href="#DejaVuSans-35" transform="translate(179.199219 0)"/>
      </g>
     </g>
    </g>
    <g id="ytick_2">
     <g id="line2d_21">
      <path d="M 42.01 231.612897 
L 450 231.612897 
" clip-path="url(#pef669fe25c)" style="fill: none; stroke: #b0b0b0; stroke-width: 0.8; stroke-linecap: square"/>
     </g>
     <g id="line2d_22">
      <g>
       <use xlink:href="#m4472cd3f75" x="42.01" y="231.612897" style="stroke: #000000; stroke-width: 0.8"/>
      </g>
     </g>
     <g id="text_12">
      <!-- −1.0 -->
      <g transform="translate(10.727187 235.412116) scale(0.1 -0.1)">
       <use xlink:href="#DejaVuSans-2212"/>
       <use xlink:href="#DejaVuSans-31" transform="translate(83.789062 0)"/>
       <use xlink:href="#DejaVuSans-2e" transform="translate(147.412109 0)"/>
       <use xlink:href="#DejaVuSans-30" transform="translate(179.199219 0)"/>
      </g>
     </g>
    </g>
    <g id="ytick_3">
     <g id="line2d_23">
      <path d="M 42.01 182.873968 
L 450 182.873968 
" clip-path="url(#pef669fe25c)" style="fill: none; stroke: #b0b0b0; stroke-width: 0.8; stroke-linecap: square"/>
     </g>
     <g id="line2d_24">
      <g>
       <use xlink:href="#m4472cd3f75" x="42.01" y="182.873968" style="stroke: #000000; stroke-width: 0.8"/>
      </g>
     </g>
     <g id="text_13">
      <!-- −0.5 -->
      <g transform="translate(10.727187 186.673187) scale(0.1 -0.1)">
       <use xlink:href="#DejaVuSans-2212"/>
       <use xlink:href="#DejaVuSans-30" transform="translate(83.789062 0)"/>
       <use xlink:href="#DejaVuSans-2e" transform="translate(147.412109 0)"/>
       <use xlink:href="#DejaVuSans-35" transform="translate(179.199219 0)"/>
      </g>
     </g>
    </g>
    <g id="ytick_4">
     <g id="line2d_25">
      <path d="M 42.01 134.135038 
L 450 134.135038 
" clip-path="url(#pef669fe25c)" style="fill: none; stroke: #b0b0b0; stroke-width: 0.8; stroke-linecap: square"/>
     </g>
     <g id="line2d_26">
      <g>
       <use xlink:href="#m4472cd3f75" x="42.01" y="134.135038" style="stroke: #000000; stroke-width: 0.8"/>
      </g>
     </g>
     <g id="text_14">
      <!-- 0.0 -->
      <g transform="translate(19.106875 137.934257) scale(0.1 -0.1)">
       <use xlink:href="#DejaVuSans-30"/>
       <use xlink:href="#DejaVuSans-2e" transform="translate(63.623047 0)"/>
       <use xlink:href="#DejaVuSans-30" transform="translate(95.410156 0)"/>
      </g>
     </g>
    </g>
    <g id="ytick_5">
     <g id="line2d_27">
      <path d="M 42.01 85.396109 
L 450 85.396109 
" clip-path="url(#pef669fe25c)" style="fill: none; stroke: #b0b0b0; stroke-width: 0.8; stroke-linecap: square"/>
     </g>
     <g id="line2d_28">
      <g>
       <use xlink:href="#m4472cd3f75" x="42.01" y="85.396109" style="stroke: #000000; stroke-width: 0.8"/>
      </g>
     </g>
     <g id="text_15">
      <!-- 0.5 -->
      <g transform="translate(19.106875 89.195327) scale(0.1 -0.1)">
       <use xlink:href="#DejaVuSans-30"/>
       <use xlink:href="#DejaVuSans-2e" transform="translate(63.623047 0)"/>
       <use xlink:href="#DejaVuSans-35" transform="translate(95.410156 0)"/>
      </g>
     </g>
    </g>
    <g id="ytick_6">
     <g id="line2d_29">
      <path d="M 42.01 36.657179 
L 450 36.657179 
" clip-path="url(#pef669fe25c)" style="fill: none; stroke: #b0b0b0; stroke-width: 0.8; stroke-linecap: square"/>
     </g>
     <g id="line2d_30">
      <g>
       <use xlink:href="#m4472cd3f75" x="42.01" y="36.657179" style="stroke: #000000; stroke-width: 0.8"/>
      </g>
     </g>
     <g id="text_16">
      <!-- 1.0 -->
      <g transform="translate(19.106875 40.456398) scale(0.1 -0.1)">
       <use xlink:href="#DejaVuSans-31"/>
       <use xlink:href="#DejaVuSans-2e" transform="translate(63.623047 0)"/>
       <use xlink:href="#DejaVuSans-30" transform="translate(95.410156 0)"/>
      </g>
     </g>
    </g>
   </g>
   <g id="line2d_31">
    <path d="M 60.555 36.657179 
L 64.301465 36.657179 
L 68.047929 36.657179 
L 71.794394 36.657179 
L 75.540859 36.657179 
L 79.287323 36.657179 
L 83.033788 36.657179 
L 86.780253 36.657179 
L 90.526717 36.657179 
L 94.273182 36.657179 
L 98.019646 36.657179 
L 101.766111 36.657179 
L 105.512576 36.657179 
L 109.25904 36.657179 
L 113.005505 36.657179 
L 116.75197 36.657179 
L 120.498434 36.657179 
L 124.244899 36.657179 
L 127.991364 36.657179 
L 131.737828 36.657179 
L 135.484293 36.657179 
L 139.230758 36.657179 
L 142.977222 36.657179 
L 146.723687 36.657179 
L 150.470152 36.657179 
L 154.216616 231.612897 
L 157.963081 231.612897 
L 161.709545 231.612897 
L 165.45601 231.612897 
L 169.202475 231.612897 
L 172.948939 231.612897 
L 176.695404 231.612897 
L 180.441869 231.612897 
L 184.188333 231.612897 
L 187.934798 231.612897 
L 191.681263 231.612897 
L 195.427727 231.612897 
L 199.174192 231.612897 
L 202.920657 231.612897 
L 206.667121 231.612897 
L 210.413586 231.612897 
L 214.160051 231.612897 
L 217.906515 231.612897 
L 221.65298 231.612897 
L 225.399444 231.612897 
L 229.145909 231.612897 
L 232.892374 231.612897 
L 236.638838 231.612897 
L 240.385303 231.612897 
L 244.131768 231.612897 
L 247.878232 231.612897 
L 251.624697 231.612897 
L 255.371162 231.612897 
L 259.117626 231.612897 
L 262.864091 231.612897 
L 266.610556 231.612897 
L 270.35702 231.612897 
L 274.103485 231.612897 
L 277.849949 231.612897 
L 281.596414 231.612897 
L 285.342879 231.612897 
L 289.089343 231.612897 
L 292.835808 231.612897 
L 296.582273 231.612897 
L 300.328737 231.612897 
L 304.075202 231.612897 
L 307.821667 231.612897 
L 311.568131 231.612897 
L 315.314596 231.612897 
L 319.061061 231.612897 
L 322.807525 231.612897 
L 326.55399 231.612897 
L 330.300455 231.612897 
L 334.046919 231.612897 
L 337.793384 231.612897 
L 341.539848 36.657179 
L 345.286313 36.657179 
L 349.032778 36.657179 
L 352.779242 36.657179 
L 356.525707 36.657179 
L 360.272172 36.657179 
L 364.018636 36.657179 
L 367.765101 36.657179 
L 371.511566 36.657179 
L 375.25803 36.657179 
L 379.004495 36.657179 
L 382.75096 36.657179 
L 386.497424 36.657179 
L 390.243889 36.657179 
L 393.990354 36.657179 
L 397.736818 36.657179 
L 401.483283 36.657179 
L 405.229747 36.657179 
L 408.976212 36.657179 
L 412.722677 36.657179 
L 416.469141 36.657179 
L 420.215606 36.657179 
L 423.962071 36.657179 
L 427.708535 36.657179 
L 431.455 36.657179 
" clip-path="url(#pef669fe25c)" style="fill: none; stroke: #1f77b4; stroke-width: 1.5; stroke-linecap: square"/>
   </g>
   <g id="line2d_32">
    <path d="M 60.555 63.715767 
L 64.301465 64.982285 
L 68.047929 66.344426 
L 71.794394 67.812618 
L 75.540859 69.398835 
L 79.287323 71.116906 
L 83.033788 72.982889 
L 86.780253 75.015549 
L 90.526717 77.236972 
L 94.273182 79.673349 
L 98.019646 82.356016 
L 101.766111 85.322835 
L 105.512576 88.620067 
L 109.25904 92.304971 
L 113.005505 96.449494 
L 116.75197 101.145657 
L 120.498434 106.513694 
L 124.244899 112.714845 
L 127.991364 119.972497 
L 131.737828 128.609377 
L 135.484293 139.118505 
L 139.230758 152.314229 
L 142.977222 169.707273 
L 146.723687 194.640534 
L 150.470152 235.697488 
L 154.216616 288.267273 
L 157.963081 261.743777 
L 161.709545 249.520873 
L 165.45601 243.311513 
L 169.202475 239.637045 
L 172.948939 237.264447 
L 176.695404 235.651616 
L 180.441869 234.519198 
L 184.188333 233.707426 
L 187.934798 233.117991 
L 191.681263 232.687034 
L 195.427727 232.371307 
L 199.174192 232.140538 
L 202.920657 231.972975 
L 206.667121 231.852642 
L 210.413586 231.767609 
L 214.160051 231.708837 
L 217.906515 231.669413 
L 221.65298 231.644012 
L 225.399444 231.628522 
L 229.145909 231.619782 
L 232.892374 231.615383 
L 236.638838 231.613538 
L 240.385303 231.61298 
L 244.131768 231.612898 
L 247.878232 231.612898 
L 251.624697 231.61298 
L 255.371162 231.613538 
L 259.117626 231.615383 
L 262.864091 231.619782 
L 266.610556 231.628522 
L 270.35702 231.644012 
L 274.103485 231.669413 
L 277.849949 231.708837 
L 281.596414 231.767609 
L 285.342879 231.852642 
L 289.089343 231.972975 
L 292.835808 232.140538 
L 296.582273 232.371307 
L 300.328737 232.687034 
L 304.075202 233.117991 
L 307.821667 233.707426 
L 311.568131 234.519198 
L 315.314596 235.651616 
L 319.061061 237.264447 
L 322.807525 239.637045 
L 326.55399 243.311513 
L 330.300455 249.520873 
L 334.046919 261.743777 
L 337.793384 288.267273 
L 341.539848 235.697488 
L 345.286313 194.640534 
L 349.032778 169.707273 
L 352.779242 152.314229 
L 356.525707 139.118505 
L 360.272172 128.609377 
L 364.018636 119.972497 
L 367.765101 112.714845 
L 371.511566 106.513694 
L 375.25803 101.145657 
L 379.004495 96.449494 
L 382.75096 92.304971 
L 386.497424 88.620067 
L 390.243889 85.322835 
L 393.990354 82.356016 
L 397.736818 79.673349 
L 401.483283 77.236972 
L 405.229747 75.015549 
L 408.976212 72.982889 
L 412.722677 71.116906 
L 416.469141 69.398835 
L 420.215606 67.812618 
L 423.962071 66.344426 
L 427.708535 64.982285 
L 431.455 63.715767 
" clip-path="url(#pef669fe25c)" style="fill: none; stroke-dasharray: 5.55,2.4; stroke-dashoffset: 0; stroke: #aec7e8; stroke-width: 1.5"/>
   </g>
   <g id="line2d_33">
    <path d="M 60.555 36.654666 
L 64.301465 36.654146 
L 68.047929 36.653499 
L 71.794394 36.652689 
L 75.540859 36.651668 
L 79.287323 36.65037 
L 83.033788 36.648708 
L 86.780253 36.64656 
L 90.526717 36.643759 
L 94.273182 36.640067 
L 98.019646 36.635144 
L 101.766111 36.628496 
L 105.512576 36.619393 
L 109.25904 36.606727 
L 113.005505 36.588782 
L 116.75197 36.562825 
L 120.498434 36.524357 
L 124.244899 36.465688 
L 127.991364 36.373037 
L 131.737828 36.220254 
L 135.484293 35.953966 
L 139.230758 35.454532 
L 142.977222 34.417318 
L 146.723687 31.898659 
L 150.470152 24.012727 
L 154.216616 109.227618 
L 157.963081 170.204419 
L 161.709545 195.66788 
L 165.45601 208.196919 
L 169.202475 215.560499 
L 172.948939 220.308551 
L 176.695404 223.535022 
L 180.441869 225.800134 
L 184.188333 227.423779 
L 187.934798 228.602687 
L 191.681263 229.464615 
L 195.427727 230.096076 
L 199.174192 230.557614 
L 202.920657 230.892743 
L 206.667121 231.133407 
L 210.413586 231.303474 
L 214.160051 231.421018 
L 217.906515 231.499866 
L 221.65298 231.550669 
L 225.399444 231.581647 
L 229.145909 231.599128 
L 232.892374 231.607925 
L 236.638838 231.611616 
L 240.385303 231.612732 
L 244.131768 231.612895 
L 247.878232 231.612895 
L 251.624697 231.612732 
L 255.371162 231.611616 
L 259.117626 231.607925 
L 262.864091 231.599128 
L 266.610556 231.581647 
L 270.35702 231.550669 
L 274.103485 231.499866 
L 277.849949 231.421018 
L 281.596414 231.303474 
L 285.342879 231.133407 
L 289.089343 230.892743 
L 292.835808 230.557614 
L 296.582273 230.096076 
L 300.328737 229.464615 
L 304.075202 228.602687 
L 307.821667 227.423779 
L 311.568131 225.800134 
L 315.314596 223.535022 
L 319.061061 220.308551 
L 322.807525 215.560499 
L 326.55399 208.196919 
L 330.300455 195.66788 
L 334.046919 170.204419 
L 337.793384 109.227618 
L 341.539848 24.012727 
L 345.286313 31.898659 
L 349.032778 34.417318 
L 352.779242 35.454532 
L 356.525707 35.953966 
L 360.272172 36.220254 
L 364.018636 36.373037 
L 367.765101 36.465688 
L 371.511566 36.524357 
L 375.25803 36.562825 
L 379.004495 36.588782 
L 382.75096 36.606727 
L 386.497424 36.619393 
L 390.243889 36.628496 
L 393.990354 36.635144 
L 397.736818 36.640067 
L 401.483283 36.643759 
L 405.229747 36.64656 
L 408.976212 36.648708 
L 412.722677 36.65037 
L 416.469141 36.651668 
L 420.215606 36.652689 
L 423.962071 36.653499 
L 427.708535 36.654146 
L 431.455 36.654666 
" clip-path="url(#pef669fe25c)" style="fill: none; stroke-dasharray: 5.55,2.4; stroke-dashoffset: 0; stroke: #ff7f0e; stroke-width: 1.5"/>
   </g>
   <g id="line2d_34">
    <path d="M 60.555 36.659692 
L 64.301465 36.660212 
L 68.047929 36.660859 
L 71.794394 36.661669 
L 75.540859 36.662691 
L 79.287323 36.663988 
L 83.033788 36.66565 
L 86.780253 36.667798 
L 90.526717 36.670599 
L 94.273182 36.674292 
L 98.019646 36.679215 
L 101.766111 36.685862 
L 105.512576 36.694965 
L 109.25904 36.707632 
L 113.005505 36.725577 
L 116.75197 36.751535 
L 120.498434 36.790004 
L 124.244899 36.848684 
L 127.991364 36.941388 
L 131.737828 37.094477 
L 135.484293 37.362651 
L 139.230758 37.874746 
L 142.977222 39.004552 
L 146.723687 42.243372 
L 150.470152 55.162453 
L 154.216616 225.040928 
L 157.963081 230.570477 
L 161.709545 231.571748 
L 165.45601 231.631589 
L 169.202475 231.622149 
L 172.948939 231.61641 
L 176.695404 231.614199 
L 180.441869 231.613383 
L 184.188333 231.613079 
L 187.934798 231.612965 
L 191.681263 231.612922 
L 195.427727 231.612906 
L 199.174192 231.6129 
L 202.920657 231.612898 
L 206.667121 231.612898 
L 210.413586 231.612897 
L 214.160051 231.612897 
L 217.906515 231.612897 
L 221.65298 231.612897 
L 225.399444 231.612897 
L 229.145909 231.612897 
L 232.892374 231.612897 
L 236.638838 231.612897 
L 240.385303 231.612897 
L 244.131768 231.612897 
L 247.878232 231.612897 
L 251.624697 231.612897 
L 255.371162 231.612897 
L 259.117626 231.612897 
L 262.864091 231.612897 
L 266.610556 231.612897 
L 270.35702 231.612897 
L 274.103485 231.612897 
L 277.849949 231.612897 
L 281.596414 231.612897 
L 285.342879 231.612898 
L 289.089343 231.612898 
L 292.835808 231.6129 
L 296.582273 231.612906 
L 300.328737 231.612922 
L 304.075202 231.612965 
L 307.821667 231.613079 
L 311.568131 231.613383 
L 315.314596 231.614199 
L 319.061061 231.61641 
L 322.807525 231.622149 
L 326.55399 231.631589 
L 330.300455 231.571748 
L 334.046919 230.570477 
L 337.793384 225.040928 
L 341.539848 55.162453 
L 345.286313 42.243372 
L 349.032778 39.004552 
L 352.779242 37.874746 
L 356.525707 37.362651 
L 360.272172 37.094477 
L 364.018636 36.941388 
L 367.765101 36.848684 
L 371.511566 36.790004 
L 375.25803 36.751535 
L 379.004495 36.725577 
L 382.75096 36.707632 
L 386.497424 36.694965 
L 390.243889 36.685862 
L 393.990354 36.679215 
L 397.736818 36.674292 
L 401.483283 36.670599 
L 405.229747 36.667798 
L 408.976212 36.66565 
L 412.722677 36.663988 
L 416.469141 36.662691 
L 420.215606 36.661669 
L 423.962071 36.660859 
L 427.708535 36.660212 
L 431.455 36.659692 
" clip-path="url(#pef669fe25c)" style="fill: none; stroke-dasharray: 5.55,2.4; stroke-dashoffset: 0; stroke: #ffbb78; stroke-width: 1.5"/>
   </g>
   <g id="patch_3">
    <path d="M 42.01 301.48 
L 42.01 10.8 
" style="fill: none; stroke: #000000; stroke-width: 0.8; stroke-linejoin: miter; stroke-linecap: square"/>
   </g>
   <g id="patch_4">
    <path d="M 450 301.48 
L 450 10.8 
" style="fill: none; stroke: #000000; stroke-width: 0.8; stroke-linejoin: miter; stroke-linecap: square"/>
   </g>
   <g id="patch_5">
    <path d="M 42.01 301.48 
L 450 301.48 
" style="fill: none; stroke: #000000; stroke-width: 0.8; stroke-linejoin: miter; stroke-linecap: square"/>
   </g>
   <g id="patch_6">
    <path d="M 42.01 10.8 
L 450 10.8 
" style="fill: none; stroke: #000000; stroke-width: 0.8; stroke-linejoin: miter; stroke-linecap: square"/>
   </g>
   <g id="legend_1">
    <g id="patch_7">
     <path d="M 169.817891 97.52625 
L 322.192109 97.52625 
Q 324.792109 97.52625 324.792109 94.92625 
L 324.792109 19.9 
Q 324.792109 17.3 322.192109 17.3 
L 169.817891 17.3 
Q 167.217891 17.3 167.217891 19.9 
L 167.217891 94.92625 
Q 167.217891 97.52625 169.817891 97.52625 
z
" style="fill: #ffffff; opacity: 0.8; stroke: #cccccc; stroke-linejoin: miter"/>
    </g>
    <g id="line2d_35">
     <path d="M 172.417891 27.827969 
L 185.417891 27.827969 
L 198.417891 27.827969 
" style="fill: none; stroke: #1f77b4; stroke-width: 1.5; stroke-linecap: square"/>
    </g>
    <g id="text_17">
     <!-- Global Index -->
     <g transform="translate(208.817891 32.377969) scale(0.13 -0.13)">
      <defs>
       <path id="DejaVuSans-47" d="M 3809 666 
L 3809 1919 
L 2778 1919 
L 2778 2438 
L 4434 2438 
L 4434 434 
Q 4069 175 3628 42 
Q 3188 -91 2688 -91 
Q 1594 -91 976 548 
Q 359 1188 359 2328 
Q 359 3472 976 4111 
Q 1594 4750 2688 4750 
Q 3144 4750 3555 4637 
Q 3966 4525 4313 4306 
L 4313 3634 
Q 3963 3931 3569 4081 
Q 3175 4231 2741 4231 
Q 1884 4231 1454 3753 
Q 1025 3275 1025 2328 
Q 1025 1384 1454 906 
Q 1884 428 2741 428 
Q 3075 428 3337 486 
Q 3600 544 3809 666 
z
" transform="scale(0.015625)"/>
       <path id="DejaVuSans-6c" d="M 603 4863 
L 1178 4863 
L 1178 0 
L 603 0 
L 603 4863 
z
" transform="scale(0.015625)"/>
       <path id="DejaVuSans-6f" d="M 1959 3097 
Q 1497 3097 1228 2736 
Q 959 2375 959 1747 
Q 959 1119 1226 758 
Q 1494 397 1959 397 
Q 2419 397 2687 759 
Q 2956 1122 2956 1747 
Q 2956 2369 2687 2733 
Q 2419 3097 1959 3097 
z
M 1959 3584 
Q 2709 3584 3137 3096 
Q 3566 2609 3566 1747 
Q 3566 888 3137 398 
Q 2709 -91 1959 -91 
Q 1206 -91 779 398 
Q 353 888 353 1747 
Q 353 2609 779 3096 
Q 1206 3584 1959 3584 
z
" transform="scale(0.015625)"/>
       <path id="DejaVuSans-62" d="M 3116 1747 
Q 3116 2381 2855 2742 
Q 2594 3103 2138 3103 
Q 1681 3103 1420 2742 
Q 1159 2381 1159 1747 
Q 1159 1113 1420 752 
Q 1681 391 2138 391 
Q 2594 391 2855 752 
Q 3116 1113 3116 1747 
z
M 1159 2969 
Q 1341 3281 1617 3432 
Q 1894 3584 2278 3584 
Q 2916 3584 3314 3078 
Q 3713 2572 3713 1747 
Q 3713 922 3314 415 
Q 2916 -91 2278 -91 
Q 1894 -91 1617 61 
Q 1341 213 1159 525 
L 1159 0 
L 581 0 
L 581 4863 
L 1159 4863 
L 1159 2969 
z
" transform="scale(0.015625)"/>
       <path id="DejaVuSans-61" d="M 2194 1759 
Q 1497 1759 1228 1600 
Q 959 1441 959 1056 
Q 959 750 1161 570 
Q 1363 391 1709 391 
Q 2188 391 2477 730 
Q 2766 1069 2766 1631 
L 2766 1759 
L 2194 1759 
z
M 3341 1997 
L 3341 0 
L 2766 0 
L 2766 531 
Q 2569 213 2275 61 
Q 1981 -91 1556 -91 
Q 1019 -91 701 211 
Q 384 513 384 1019 
Q 384 1609 779 1909 
Q 1175 2209 1959 2209 
L 2766 2209 
L 2766 2266 
Q 2766 2663 2505 2880 
Q 2244 3097 1772 3097 
Q 1472 3097 1187 3025 
Q 903 2953 641 2809 
L 641 3341 
Q 956 3463 1253 3523 
Q 1550 3584 1831 3584 
Q 2591 3584 2966 3190 
Q 3341 2797 3341 1997 
z
" transform="scale(0.015625)"/>
       <path id="DejaVuSans-20" transform="scale(0.015625)"/>
       <path id="DejaVuSans-49" d="M 628 4666 
L 1259 4666 
L 1259 0 
L 628 0 
L 628 4666 
z
" transform="scale(0.015625)"/>
       <path id="DejaVuSans-6e" d="M 3513 2113 
L 3513 0 
L 2938 0 
L 2938 2094 
Q 2938 2591 2744 2837 
Q 2550 3084 2163 3084 
Q 1697 3084 1428 2787 
Q 1159 2491 1159 1978 
L 1159 0 
L 581 0 
L 581 3500 
L 1159 3500 
L 1159 2956 
Q 1366 3272 1645 3428 
Q 1925 3584 2291 3584 
Q 2894 3584 3203 3211 
Q 3513 2838 3513 2113 
z
" transform="scale(0.015625)"/>
       <path id="DejaVuSans-64" d="M 2906 2969 
L 2906 4863 
L 3481 4863 
L 3481 0 
L 2906 0 
L 2906 525 
Q 2725 213 2448 61 
Q 2172 -91 1784 -91 
Q 1150 -91 751 415 
Q 353 922 353 1747 
Q 353 2572 751 3078 
Q 1150 3584 1784 3584 
Q 2172 3584 2448 3432 
Q 2725 3281 2906 2969 
z
M 947 1747 
Q 947 1113 1208 752 
Q 1469 391 1925 391 
Q 2381 391 2643 752 
Q 2906 1113 2906 1747 
Q 2906 2381 2643 2742 
Q 2381 3103 1925 3103 
Q 1469 3103 1208 2742 
Q 947 2381 947 1747 
z
" transform="scale(0.015625)"/>
       <path id="DejaVuSans-65" d="M 3597 1894 
L 3597 1613 
L 953 1613 
Q 991 1019 1311 708 
Q 1631 397 2203 397 
Q 2534 397 2845 478 
Q 3156 559 3463 722 
L 3463 178 
Q 3153 47 2828 -22 
Q 2503 -91 2169 -91 
Q 1331 -91 842 396 
Q 353 884 353 1716 
Q 353 2575 817 3079 
Q 1281 3584 2069 3584 
Q 2775 3584 3186 3129 
Q 3597 2675 3597 1894 
z
M 3022 2063 
Q 3016 2534 2758 2815 
Q 2500 3097 2075 3097 
Q 1594 3097 1305 2825 
Q 1016 2553 972 2059 
L 3022 2063 
z
" transform="scale(0.015625)"/>
       <path id="DejaVuSans-78" d="M 3513 3500 
L 2247 1797 
L 3578 0 
L 2900 0 
L 1881 1375 
L 863 0 
L 184 0 
L 1544 1831 
L 300 3500 
L 978 3500 
L 1906 2253 
L 2834 3500 
L 3513 3500 
z
" transform="scale(0.015625)"/>
      </defs>
      <use xlink:href="#DejaVuSans-47"/>
      <use xlink:href="#DejaVuSans-6c" transform="translate(77.490234 0)"/>
      <use xlink:href="#DejaVuSans-6f" transform="translate(105.273438 0)"/>
      <use xlink:href="#DejaVuSans-62" transform="translate(166.455078 0)"/>
      <use xlink:href="#DejaVuSans-61" transform="translate(229.931641 0)"/>
      <use xlink:href="#DejaVuSans-6c" transform="translate(291.210938 0)"/>
      <use xlink:href="#DejaVuSans-20" transform="translate(318.994141 0)"/>
      <use xlink:href="#DejaVuSans-49" transform="translate(350.78125 0)"/>
      <use xlink:href="#DejaVuSans-6e" transform="translate(380.273438 0)"/>
      <use xlink:href="#DejaVuSans-64" transform="translate(443.652344 0)"/>
      <use xlink:href="#DejaVuSans-65" transform="translate(507.128906 0)"/>
      <use xlink:href="#DejaVuSans-78" transform="translate(566.902344 0)"/>
     </g>
    </g>
    <g id="line2d_36">
     <path d="M 172.417891 46.909531 
L 185.417891 46.909531 
L 198.417891 46.909531 
" style="fill: none; stroke-dasharray: 5.55,2.4; stroke-dashoffset: 0; stroke: #aec7e8; stroke-width: 1.5"/>
    </g>
    <g id="text_18">
     <!-- Local Index, N=1 -->
     <g transform="translate(208.817891 51.459531) scale(0.13 -0.13)">
      <defs>
       <path id="DejaVuSans-4c" d="M 628 4666 
L 1259 4666 
L 1259 531 
L 3531 531 
L 3531 0 
L 628 0 
L 628 4666 
z
" transform="scale(0.015625)"/>
       <path id="DejaVuSans-63" d="M 3122 3366 
L 3122 2828 
Q 2878 2963 2633 3030 
Q 2388 3097 2138 3097 
Q 1578 3097 1268 2742 
Q 959 2388 959 1747 
Q 959 1106 1268 751 
Q 1578 397 2138 397 
Q 2388 397 2633 464 
Q 2878 531 3122 666 
L 3122 134 
Q 2881 22 2623 -34 
Q 2366 -91 2075 -91 
Q 1284 -91 818 406 
Q 353 903 353 1747 
Q 353 2603 823 3093 
Q 1294 3584 2113 3584 
Q 2378 3584 2631 3529 
Q 2884 3475 3122 3366 
z
" transform="scale(0.015625)"/>
       <path id="DejaVuSans-2c" d="M 750 794 
L 1409 794 
L 1409 256 
L 897 -744 
L 494 -744 
L 750 256 
L 750 794 
z
" transform="scale(0.015625)"/>
       <path id="DejaVuSans-4e" d="M 628 4666 
L 1478 4666 
L 3547 763 
L 3547 4666 
L 4159 4666 
L 4159 0 
L 3309 0 
L 1241 3903 
L 1241 0 
L 628 0 
L 628 4666 
z
" transform="scale(0.015625)"/>
       <path id="DejaVuSans-3d" d="M 678 2906 
L 4684 2906 
L 4684 2381 
L 678 2381 
L 678 2906 
z
M 678 1631 
L 4684 1631 
L 4684 1100 
L 678 1100 
L 678 1631 
z
" transform="scale(0.015625)"/>
      </defs>
      <use xlink:href="#DejaVuSans-4c"/>
      <use xlink:href="#DejaVuSans-6f" transform="translate(53.962891 0)"/>
      <use xlink:href="#DejaVuSans-63" transform="translate(115.144531 0)"/>
      <use xlink:href="#DejaVuSans-61" transform="translate(170.125 0)"/>
      <use xlink:href="#DejaVuSans-6c" transform="translate(231.404297 0)"/>
      <use xlink:href="#DejaVuSans-20" transform="translate(259.1875 0)"/>
      <use xlink:href="#DejaVuSans-49" transform="translate(290.974609 0)"/>
      <use xlink:href="#DejaVuSans-6e" transform="translate(320.466797 0)"/>
      <use xlink:href="#DejaVuSans-64" transform="translate(383.845703 0)"/>
      <use xlink:href="#DejaVuSans-65" transform="translate(447.322266 0)"/>
      <use xlink:href="#DejaVuSans-78" transform="translate(507.095703 0)"/>
      <use xlink:href="#DejaVuSans-2c" transform="translate(566.275391 0)"/>
      <use xlink:href="#DejaVuSans-20" transform="translate(598.0625 0)"/>
      <use xlink:href="#DejaVuSans-4e" transform="translate(629.849609 0)"/>
      <use xlink:href="#DejaVuSans-3d" transform="translate(704.654297 0)"/>
      <use xlink:href="#DejaVuSans-31" transform="translate(788.443359 0)"/>
     </g>
    </g>
    <g id="line2d_37">
     <path d="M 172.417891 65.991094 
L 185.417891 65.991094 
L 198.417891 65.991094 
" style="fill: none; stroke-dasharray: 5.55,2.4; stroke-dashoffset: 0; stroke: #ff7f0e; stroke-width: 1.5"/>
    </g>
    <g id="text_19">
     <!-- Local Index, N=2 -->
     <g transform="translate(208.817891 70.541094) scale(0.13 -0.13)">
      <use xlink:href="#DejaVuSans-4c"/>
      <use xlink:href="#DejaVuSans-6f" transform="translate(53.962891 0)"/>
      <use xlink:href="#DejaVuSans-63" transform="translate(115.144531 0)"/>
      <use xlink:href="#DejaVuSans-61" transform="translate(170.125 0)"/>
      <use xlink:href="#DejaVuSans-6c" transform="translate(231.404297 0)"/>
      <use xlink:href="#DejaVuSans-20" transform="translate(259.1875 0)"/>
      <use xlink:href="#DejaVuSans-49" transform="translate(290.974609 0)"/>
      <use xlink:href="#DejaVuSans-6e" transform="translate(320.466797 0)"/>
      <use xlink:href="#DejaVuSans-64" transform="translate(383.845703 0)"/>
      <use xlink:href="#DejaVuSans-65" transform="translate(447.322266 0)"/>
      <use xlink:href="#DejaVuSans-78" transform="translate(507.095703 0)"/>
      <use xlink:href="#DejaVuSans-2c" transform="translate(566.275391 0)"/>
      <use xlink:href="#DejaVuSans-20" transform="translate(598.0625 0)"/>
      <use xlink:href="#DejaVuSans-4e" transform="translate(629.849609 0)"/>
      <use xlink:href="#DejaVuSans-3d" transform="translate(704.654297 0)"/>
      <use xlink:href="#DejaVuSans-32" transform="translate(788.443359 0)"/>
     </g>
    </g>
    <g id="line2d_38">
     <path d="M 172.417891 85.072656 
L 185.417891 85.072656 
L 198.417891 85.072656 
" style="fill: none; stroke-dasharray: 5.55,2.4; stroke-dashoffset: 0; stroke: #ffbb78; stroke-width: 1.5"/>
    </g>
    <g id="text_20">
     <!-- Local Index, N=3 -->
     <g transform="translate(208.817891 89.622656) scale(0.13 -0.13)">
      <use xlink:href="#DejaVuSans-4c"/>
      <use xlink:href="#DejaVuSans-6f" transform="translate(53.962891 0)"/>
      <use xlink:href="#DejaVuSans-63" transform="translate(115.144531 0)"/>
      <use xlink:href="#DejaVuSans-61" transform="translate(170.125 0)"/>
      <use xlink:href="#DejaVuSans-6c" transform="translate(231.404297 0)"/>
      <use xlink:href="#DejaVuSans-20" transform="translate(259.1875 0)"/>
      <use xlink:href="#DejaVuSans-49" transform="translate(290.974609 0)"/>
      <use xlink:href="#DejaVuSans-6e" transform="translate(320.466797 0)"/>
      <use xlink:href="#DejaVuSans-64" transform="translate(383.845703 0)"/>
      <use xlink:href="#DejaVuSans-65" transform="translate(447.322266 0)"/>
      <use xlink:href="#DejaVuSans-78" transform="translate(507.095703 0)"/>
      <use xlink:href="#DejaVuSans-2c" transform="translate(566.275391 0)"/>
      <use xlink:href="#DejaVuSans-20" transform="translate(598.0625 0)"/>
      <use xlink:href="#DejaVuSans-4e" transform="translate(629.849609 0)"/>
      <use xlink:href="#DejaVuSans-3d" transform="translate(704.654297 0)"/>
      <use xlink:href="#DejaVuSans-33" transform="translate(788.443359 0)"/>
     </g>
    </g>
   </g>
  </g>
 </g>
 <defs>
  <clipPath id="pef669fe25c">
   <rect x="42.01" y="10.8" width="407.99" height="290.68"/>
  </clipPath>
 </defs>
</svg>
