<?xml version="1.0" encoding="utf-8" standalone="no"?>
<!DOCTYPE svg PUBLIC "-//W3C//DTD SVG 1.1//EN"
  "http://www.w3.org/Graphics/SVG/1.1/DTD/svg11.dtd">
<svg xmlns:xlink="http://www.w3.org/1999/xlink" width="460.8pt" height="345.6pt" viewBox="0 0 460.8 345.6" xmlns="http://www.w3.org/2000/svg" version="1.1">
 <metadata>
  <rdf:RDF xmlns:dc="http://purl.org/dc/elements/1.1/" xmlns:cc="http://creativecommons.org/ns#" xmlns:rdf="http://www.w3.org/1999/02/22-rdf-syntax-ns#">
   <cc:Work>
    <dc:type rdf:resource="http://purl.org/dc/dcmitype/StillImage"/>
    <dc:date>2026-05-07T17:34:18.756973</dc:date>
    <dc:format>image/svg+xml</dc:format>
    <dc:creator>
     <cc:Agent>
      <dc:title>Matplotlib v3.10.9, https://matplotlib.org/</dc:title>
     </cc:Agent>
    </dc:creator>
   </cc:Work>
  </rdf:RDF>
 </metadata>
 <defs>
  <style type="text/css">*{stroke-linejoin: round; stroke-linecap: butt}</style>
 </defs>
 <g id="figure_1">
  <g id="patch_1">
   <path d="M 0 345.6 
L 460.8 345.6 
L 460.8 0 
L 0 0 
z
" style="fill: #ffffff"/>
  </g>
  <g id="axes_1">
   <g id="patch_2">
    <path d="M 57.6 307.584 
L 414.72 307.584 
L 414.72 41.472 
L 57.6 41.472 
z
" style="fill: #ffffff"/>
   </g>
   <g id="matplotlib.axis_1">
    <g id="xtick_1">
     <g id="line2d_1">
      <path d="M 73.832727 307.584 
L 73.832727 41.472 
" clip-path="url(#pf1809fb115)" style="fill: none; stroke: #b0b0b0; stroke-width: 0.8; stroke-linecap: square"/>
     </g>
     <g id="line2d_2">
      <defs>
       <path id="mc1e4a0b549" d="M 0 0 
L 0 3.5 
" style="stroke: #000000; stroke-width: 0.8"/>
      </defs>
      <g>
       <use xlink:href="#mc1e4a0b549" x="73.832727" y="307.584" style="stroke: #000000; stroke-width: 0.8"/>
      </g>
     </g>
     <g id="text_1">
      <!-- −4 -->
      <g transform="translate(66.461634 322.182437) scale(0.1 -0.1)">
       <defs>
        <path id="DejaVuSans-2212" d="M 678 2272 
L 4684 2272 
L 4684 1741 
L 678 1741 
L 678 2272 
z
" transform="scale(0.015625)"/>
        <path id="DejaVuSans-34" d="M 2419 4116 
L 825 1625 
L 2419 1625 
L 2419 4116 
z
M 2253 4666 
L 3047 4666 
L 3047 1625 
L 3713 1625 
L 3713 1100 
L 3047 1100 
L 3047 0 
L 2419 0 
L 2419 1100 
L 313 1100 
L 313 1709 
L 2253 4666 
z
" transform="scale(0.015625)"/>
       </defs>
       <use xlink:href="#DejaVuSans-2212"/>
       <use xlink:href="#DejaVuSans-34" transform="translate(83.789062 0)"/>
      </g>
     </g>
    </g>
    <g id="xtick_2">
     <g id="line2d_3">
      <path d="M 114.414545 307.584 
L 114.414545 41.472 
" clip-path="url(#pf1809fb115)" style="fill: none; stroke: #b0b0b0; stroke-width: 0.8; stroke-linecap: square"/>
     </g>
     <g id="line2d_4">
      <g>
       <use xlink:href="#mc1e4a0b549" x="114.414545" y="307.584" style="stroke: #000000; stroke-width: 0.8"/>
      </g>
     </g>
     <g id="text_2">
      <!-- −3 -->
      <g transform="translate(107.043452 322.182437) scale(0.1 -0.1)">
       <defs>
        <path id="DejaVuSans-33" d="M 2597 2516 
Q 3050 2419 3304 2112 
Q 3559 1806 3559 1356 
Q 3559 666 3084 287 
Q 2609 -91 1734 -91 
Q 1441 -91 1130 -33 
Q 819 25 488 141 
L 488 750 
Q 750 597 1062 519 
Q 1375 441 1716 441 
Q 2309 441 2620 675 
Q 2931 909 2931 1356 
Q 2931 1769 2642 2001 
Q 2353 2234 1838 2234 
L 1294 2234 
L 1294 2753 
L 1863 2753 
Q 2328 2753 2575 2939 
Q 2822 3125 2822 3475 
Q 2822 3834 2567 4026 
Q 2313 4219 1838 4219 
Q 1578 4219 1281 4162 
Q 984 4106 628 3988 
L 628 4550 
Q 988 4650 1302 4700 
Q 1616 4750 1894 4750 
Q 2613 4750 3031 4423 
Q 3450 4097 3450 3541 
Q 3450 3153 3228 2886 
Q 3006 2619 2597 2516 
z
" transform="scale(0.015625)"/>
       </defs>
       <use xlink:href="#DejaVuSans-2212"/>
       <use xlink:href="#DejaVuSans-33" transform="translate(83.789062 0)"/>
      </g>
     </g>
    </g>
    <g id="xtick_3">
     <g id="line2d_5">
      <path d="M 154.996364 307.584 
L 154.996364 41.472 
" clip-path="url(#pf1809fb115)" style="fill: none; stroke: #b0b0b0; stroke-width: 0.8; stroke-linecap: square"/>
     </g>
     <g id="line2d_6">
      <g>
       <use xlink:href="#mc1e4a0b549" x="154.996364" y="307.584" style="stroke: #000000; stroke-width: 0.8"/>
      </g>
     </g>
     <g id="text_3">
      <!-- −2 -->
      <g transform="translate(147.62527 322.182437) scale(0.1 -0.1)">
       <defs>
        <path id="DejaVuSans-32" d="M 1228 531 
L 3431 531 
L 3431 0 
L 469 0 
L 469 531 
Q 828 903 1448 1529 
Q 2069 2156 2228 2338 
Q 2531 2678 2651 2914 
Q 2772 3150 2772 3378 
Q 2772 3750 2511 3984 
Q 2250 4219 1831 4219 
Q 1534 4219 1204 4116 
Q 875 4013 500 3803 
L 500 4441 
Q 881 4594 1212 4672 
Q 1544 4750 1819 4750 
Q 2544 4750 2975 4387 
Q 3406 4025 3406 3419 
Q 3406 3131 3298 2873 
Q 3191 2616 2906 2266 
Q 2828 2175 2409 1742 
Q 1991 1309 1228 531 
z
" transform="scale(0.015625)"/>
       </defs>
       <use xlink:href="#DejaVuSans-2212"/>
       <use xlink:href="#DejaVuSans-32" transform="translate(83.789062 0)"/>
      </g>
     </g>
    </g>
    <g id="xtick_4">
     <g id="line2d_7">
      <path d="M 195.578182 307.584 
L 195.578182 41.472 
" clip-path="url(#pf1809fb115)" style="fill: none; stroke: #b0b0b0; stroke-width: 0.8; stroke-linecap: square"/>
     </g>
     <g id="line2d_8">
      <g>
       <use xlink:href="#mc1e4a0b549" x="195.578182" y="307.584" style="stroke: #000000; stroke-width: 0.8"/>
      </g>
     </g>
     <g id="text_4">
      <!-- −1 -->
      <g transform="translate(188.207088 322.182437) scale(0.1 -0.1)">
       <defs>
        <path id="DejaVuSans-31" d="M 794 531 
L 1825 531 
L 1825 4091 
L 703 3866 
L 703 4441 
L 1819 4666 
L 2450 4666 
L 2450 531 
L 3481 531 
L 3481 0 
L 794 0 
L 794 531 
z
" transform="scale(0.015625)"/>
       </defs>
       <use xlink:href="#DejaVuSans-2212"/>
       <use xlink:href="#DejaVuSans-31" transform="translate(83.789062 0)"/>
      </g>
     </g>
    </g>
    <g id="xtick_5">
     <g id="line2d_9">
      <path d="M 236.16 307.584 
L 236.16 41.472 
" clip-path="url(#pf1809fb115)" style="fill: none; stroke: #b0b0b0; stroke-width: 0.8; stroke-linecap: square"/>
     </g>
     <g id="line2d_10">
      <g>
       <use xlink:href="#mc1e4a0b549" x="236.16" y="307.584" style="stroke: #000000; stroke-width: 0.8"/>
      </g>
     </g>
     <g id="text_5">
      <!-- 0 -->
      <g transform="translate(232.97875 322.182437) scale(0.1 -0.1)">
       <defs>
        <path id="DejaVuSans-30" d="M 2034 4250 
Q 1547 4250 1301 3770 
Q 1056 3291 1056 2328 
Q 1056 1369 1301 889 
Q 1547 409 2034 409 
Q 2525 409 2770 889 
Q 3016 1369 3016 2328 
Q 3016 3291 2770 3770 
Q 2525 4250 2034 4250 
z
M 2034 4750 
Q 2819 4750 3233 4129 
Q 3647 3509 3647 2328 
Q 3647 1150 3233 529 
Q 2819 -91 2034 -91 
Q 1250 -91 836 529 
Q 422 1150 422 2328 
Q 422 3509 836 4129 
Q 1250 4750 2034 4750 
z
" transform="scale(0.015625)"/>
       </defs>
       <use xlink:href="#DejaVuSans-30"/>
      </g>
     </g>
    </g>
    <g id="xtick_6">
     <g id="line2d_11">
      <path d="M 276.741818 307.584 
L 276.741818 41.472 
" clip-path="url(#pf1809fb115)" style="fill: none; stroke: #b0b0b0; stroke-width: 0.8; stroke-linecap: square"/>
     </g>
     <g id="line2d_12">
      <g>
       <use xlink:href="#mc1e4a0b549" x="276.741818" y="307.584" style="stroke: #000000; stroke-width: 0.8"/>
      </g>
     </g>
     <g id="text_6">
      <!-- 1 -->
      <g transform="translate(273.560568 322.182437) scale(0.1 -0.1)">
       <use xlink:href="#DejaVuSans-31"/>
      </g>
     </g>
    </g>
    <g id="xtick_7">
     <g id="line2d_13">
      <path d="M 317.323636 307.584 
L 317.323636 41.472 
" clip-path="url(#pf1809fb115)" style="fill: none; stroke: #b0b0b0; stroke-width: 0.8; stroke-linecap: square"/>
     </g>
     <g id="line2d_14">
      <g>
       <use xlink:href="#mc1e4a0b549" x="317.323636" y="307.584" style="stroke: #000000; stroke-width: 0.8"/>
      </g>
     </g>
     <g id="text_7">
      <!-- 2 -->
      <g transform="translate(314.142386 322.182437) scale(0.1 -0.1)">
       <use xlink:href="#DejaVuSans-32"/>
      </g>
     </g>
    </g>
    <g id="xtick_8">
     <g id="line2d_15">
      <path d="M 357.905455 307.584 
L 357.905455 41.472 
" clip-path="url(#pf1809fb115)" style="fill: none; stroke: #b0b0b0; stroke-width: 0.8; stroke-linecap: square"/>
     </g>
     <g id="line2d_16">
      <g>
       <use xlink:href="#mc1e4a0b549" x="357.905455" y="307.584" style="stroke: #000000; stroke-width: 0.8"/>
      </g>
     </g>
     <g id="text_8">
      <!-- 3 -->
      <g transform="translate(354.724205 322.182437) scale(0.1 -0.1)">
       <use xlink:href="#DejaVuSans-33"/>
      </g>
     </g>
    </g>
    <g id="xtick_9">
     <g id="line2d_17">
      <path d="M 398.487273 307.584 
L 398.487273 41.472 
" clip-path="url(#pf1809fb115)" style="fill: none; stroke: #b0b0b0; stroke-width: 0.8; stroke-linecap: square"/>
     </g>
     <g id="line2d_18">
      <g>
       <use xlink:href="#mc1e4a0b549" x="398.487273" y="307.584" style="stroke: #000000; stroke-width: 0.8"/>
      </g>
     </g>
     <g id="text_9">
      <!-- 4 -->
      <g transform="translate(395.306023 322.182437) scale(0.1 -0.1)">
       <use xlink:href="#DejaVuSans-34"/>
      </g>
     </g>
    </g>
    <g id="text_10">
     <!-- $\mu /t$ -->
     <g transform="translate(229.31 335.84025) scale(0.1 -0.1)">
      <defs>
       <path id="DejaVuSans-Oblique-3bc" d="M -84 -1331 
L 856 3500 
L 1434 3500 
L 1009 1322 
Q 997 1256 987 1175 
Q 978 1094 978 1013 
Q 978 722 1161 565 
Q 1344 409 1684 409 
Q 2147 409 2431 671 
Q 2716 934 2816 1459 
L 3213 3500 
L 3788 3500 
L 3266 809 
Q 3253 750 3248 706 
Q 3244 663 3244 628 
Q 3244 531 3283 486 
Q 3322 441 3406 441 
Q 3438 441 3492 456 
Q 3547 472 3647 513 
L 3559 50 
Q 3422 -19 3297 -55 
Q 3172 -91 3053 -91 
Q 2847 -91 2730 40 
Q 2613 172 2613 403 
Q 2438 153 2195 31 
Q 1953 -91 1625 -91 
Q 1334 -91 1117 43 
Q 900 178 831 397 
L 494 -1331 
L -84 -1331 
z
" transform="scale(0.015625)"/>
       <path id="DejaVuSans-2f" d="M 1625 4666 
L 2156 4666 
L 531 -594 
L 0 -594 
L 1625 4666 
z
" transform="scale(0.015625)"/>
       <path id="DejaVuSans-Oblique-74" d="M 2706 3500 
L 2619 3053 
L 1472 3053 
L 1100 1153 
Q 1081 1047 1072 975 
Q 1063 903 1063 863 
Q 1063 663 1183 572 
Q 1303 481 1569 481 
L 2150 481 
L 2053 0 
L 1503 0 
Q 991 0 739 200 
Q 488 400 488 806 
Q 488 878 497 964 
Q 506 1050 525 1153 
L 897 3053 
L 409 3053 
L 500 3500 
L 978 3500 
L 1172 4494 
L 1747 4494 
L 1556 3500 
L 2706 3500 
z
" transform="scale(0.015625)"/>
      </defs>
      <use xlink:href="#DejaVuSans-Oblique-3bc" transform="translate(0 0.09375)"/>
      <use xlink:href="#DejaVuSans-2f" transform="translate(63.623047 0.09375)"/>
      <use xlink:href="#DejaVuSans-Oblique-74" transform="translate(97.314453 0.09375)"/>
     </g>
    </g>
   </g>
   <g id="matplotlib.axis_2">
    <g id="ytick_1">
     <g id="line2d_19">
      <path d="M 57.6 288.24156 
L 414.72 288.24156 
" clip-path="url(#pf1809fb115)" style="fill: none; stroke: #b0b0b0; stroke-width: 0.8; stroke-linecap: square"/>
     </g>
     <g id="line2d_20">
      <defs>
       <path id="mcda505e3f7" d="M 0 0 
L -3.5 0 
" style="stroke: #000000; stroke-width: 0.8"/>
      </defs>
      <g>
       <use xlink:href="#mcda505e3f7" x="57.6" y="288.24156" style="stroke: #000000; stroke-width: 0.8"/>
      </g>
     </g>
     <g id="text_11">
      <!-- −1.5 -->
      <g transform="translate(26.317187 292.040779) scale(0.1 -0.1)">
       <defs>
        <path id="DejaVuSans-2e" d="M 684 794 
L 1344 794 
L 1344 0 
L 684 0 
L 684 794 
z
" transform="scale(0.015625)"/>
        <path id="DejaVuSans-35" d="M 691 4666 
L 3169 4666 
L 3169 4134 
L 1269 4134 
L 1269 2991 
Q 1406 3038 1543 3061 
Q 1681 3084 1819 3084 
Q 2600 3084 3056 2656 
Q 3513 2228 3513 1497 
Q 3513 744 3044 326 
Q 2575 -91 1722 -91 
Q 1428 -91 1123 -41 
Q 819 9 494 109 
L 494 744 
Q 775 591 1075 516 
Q 1375 441 1709 441 
Q 2250 441 2565 725 
Q 2881 1009 2881 1497 
Q 2881 1984 2565 2268 
Q 2250 2553 1709 2553 
Q 1456 2553 1204 2497 
Q 953 2441 691 2322 
L 691 4666 
z
" transform="scale(0.015625)"/>
       </defs>
       <use xlink:href="#DejaVuSans-2212"/>
       <use xlink:href="#DejaVuSans-31" transform="translate(83.789062 0)"/>
       <use xlink:href="#DejaVuSans-2e" transform="translate(147.412109 0)"/>
       <use xlink:href="#DejaVuSans-35" transform="translate(179.199219 0)"/>
      </g>
     </g>
    </g>
    <g id="ytick_2">
     <g id="line2d_21">
      <path d="M 57.6 243.621999 
L 414.72 243.621999 
" clip-path="url(#pf1809fb115)" style="fill: none; stroke: #b0b0b0; stroke-width: 0.8; stroke-linecap: square"/>
     </g>
     <g id="line2d_22">
      <g>
       <use xlink:href="#mcda505e3f7" x="57.6" y="243.621999" style="stroke: #000000; stroke-width: 0.8"/>
      </g>
     </g>
     <g id="text_12">
      <!-- −1.0 -->
      <g transform="translate(26.317187 247.421218) scale(0.1 -0.1)">
       <use xlink:href="#DejaVuSans-2212"/>
       <use xlink:href="#DejaVuSans-31" transform="translate(83.789062 0)"/>
       <use xlink:href="#DejaVuSans-2e" transform="translate(147.412109 0)"/>
       <use xlink:href="#DejaVuSans-30" transform="translate(179.199219 0)"/>
      </g>
     </g>
    </g>
    <g id="ytick_3">
     <g id="line2d_23">
      <path d="M 57.6 199.002438 
L 414.72 199.002438 
" clip-path="url(#pf1809fb115)" style="fill: none; stroke: #b0b0b0; stroke-width: 0.8; stroke-linecap: square"/>
     </g>
     <g id="line2d_24">
      <g>
       <use xlink:href="#mcda505e3f7" x="57.6" y="199.002438" style="stroke: #000000; stroke-width: 0.8"/>
      </g>
     </g>
     <g id="text_13">
      <!-- −0.5 -->
      <g transform="translate(26.317187 202.801657) scale(0.1 -0.1)">
       <use xlink:href="#DejaVuSans-2212"/>
       <use xlink:href="#DejaVuSans-30" transform="translate(83.789062 0)"/>
       <use xlink:href="#DejaVuSans-2e" transform="translate(147.412109 0)"/>
       <use xlink:href="#DejaVuSans-35" transform="translate(179.199219 0)"/>
      </g>
     </g>
    </g>
    <g id="ytick_4">
     <g id="line2d_25">
      <path d="M 57.6 154.382877 
L 414.72 154.382877 
" clip-path="url(#pf1809fb115)" style="fill: none; stroke: #b0b0b0; stroke-width: 0.8; stroke-linecap: square"/>
     </g>
     <g id="line2d_26">
      <g>
       <use xlink:href="#mcda505e3f7" x="57.6" y="154.382877" style="stroke: #000000; stroke-width: 0.8"/>
      </g>
     </g>
     <g id="text_14">
      <!-- 0.0 -->
      <g transform="translate(34.696875 158.182096) scale(0.1 -0.1)">
       <use xlink:href="#DejaVuSans-30"/>
       <use xlink:href="#DejaVuSans-2e" transform="translate(63.623047 0)"/>
       <use xlink:href="#DejaVuSans-30" transform="translate(95.410156 0)"/>
      </g>
     </g>
    </g>
    <g id="ytick_5">
     <g id="line2d_27">
      <path d="M 57.6 109.763316 
L 414.72 109.763316 
" clip-path="url(#pf1809fb115)" style="fill: none; stroke: #b0b0b0; stroke-width: 0.8; stroke-linecap: square"/>
     </g>
     <g id="line2d_28">
      <g>
       <use xlink:href="#mcda505e3f7" x="57.6" y="109.763316" style="stroke: #000000; stroke-width: 0.8"/>
      </g>
     </g>
     <g id="text_15">
      <!-- 0.5 -->
      <g transform="translate(34.696875 113.562535) scale(0.1 -0.1)">
       <use xlink:href="#DejaVuSans-30"/>
       <use xlink:href="#DejaVuSans-2e" transform="translate(63.623047 0)"/>
       <use xlink:href="#DejaVuSans-35" transform="translate(95.410156 0)"/>
      </g>
     </g>
    </g>
    <g id="ytick_6">
     <g id="line2d_29">
      <path d="M 57.6 65.143755 
L 414.72 65.143755 
" clip-path="url(#pf1809fb115)" style="fill: none; stroke: #b0b0b0; stroke-width: 0.8; stroke-linecap: square"/>
     </g>
     <g id="line2d_30">
      <g>
       <use xlink:href="#mcda505e3f7" x="57.6" y="65.143755" style="stroke: #000000; stroke-width: 0.8"/>
      </g>
     </g>
     <g id="text_16">
      <!-- 1.0 -->
      <g transform="translate(34.696875 68.942974) scale(0.1 -0.1)">
       <use xlink:href="#DejaVuSans-31"/>
       <use xlink:href="#DejaVuSans-2e" transform="translate(63.623047 0)"/>
       <use xlink:href="#DejaVuSans-30" transform="translate(95.410156 0)"/>
      </g>
     </g>
    </g>
   </g>
   <g id="line2d_31">
    <path d="M 73.832727 65.143755 
L 77.112066 65.143755 
L 80.391405 65.143755 
L 83.670744 65.143755 
L 86.950083 65.143755 
L 90.229421 65.143755 
L 93.50876 65.143755 
L 96.788099 65.143755 
L 100.067438 65.143755 
L 103.346777 65.143755 
L 106.626116 65.143755 
L 109.905455 65.143755 
L 113.184793 65.143755 
L 116.464132 65.143755 
L 119.743471 65.143755 
L 123.02281 65.143755 
L 126.302149 65.143755 
L 129.581488 65.143755 
L 132.860826 65.143755 
L 136.140165 65.143755 
L 139.419504 65.143755 
L 142.698843 65.143755 
L 145.978182 65.143755 
L 149.257521 65.143755 
L 152.53686 65.143755 
L 155.816198 243.621999 
L 159.095537 243.621999 
L 162.374876 243.621999 
L 165.654215 243.621999 
L 168.933554 243.621999 
L 172.212893 243.621999 
L 175.492231 243.621999 
L 178.77157 243.621999 
L 182.050909 243.621999 
L 185.330248 243.621999 
L 188.609587 243.621999 
L 191.888926 243.621999 
L 195.168264 243.621999 
L 198.447603 243.621999 
L 201.726942 243.621999 
L 205.006281 243.621999 
L 208.28562 243.621999 
L 211.564959 243.621999 
L 214.844298 243.621999 
L 218.123636 243.621999 
L 221.402975 243.621999 
L 224.682314 243.621999 
L 227.961653 243.621999 
L 231.240992 243.621999 
L 234.520331 243.621999 
L 237.799669 243.621999 
L 241.079008 243.621999 
L 244.358347 243.621999 
L 247.637686 243.621999 
L 250.917025 243.621999 
L 254.196364 243.621999 
L 257.475702 243.621999 
L 260.755041 243.621999 
L 264.03438 243.621999 
L 267.313719 243.621999 
L 270.593058 243.621999 
L 273.872397 243.621999 
L 277.151736 243.621999 
L 280.431074 243.621999 
L 283.710413 243.621999 
L 286.989752 243.621999 
L 290.269091 243.621999 
L 293.54843 243.621999 
L 296.827769 243.621999 
L 300.107107 243.621999 
L 303.386446 243.621999 
L 306.665785 243.621999 
L 309.945124 243.621999 
L 313.224463 243.621999 
L 316.503802 243.621999 
L 319.78314 65.143755 
L 323.062479 65.143755 
L 326.341818 65.143755 
L 329.621157 65.143755 
L 332.900496 65.143755 
L 336.179835 65.143755 
L 339.459174 65.143755 
L 342.738512 65.143755 
L 346.017851 65.143755 
L 349.29719 65.143755 
L 352.576529 65.143755 
L 355.855868 65.143755 
L 359.135207 65.143755 
L 362.414545 65.143755 
L 365.693884 65.143755 
L 368.973223 65.143755 
L 372.252562 65.143755 
L 375.531901 65.143755 
L 378.81124 65.143755 
L 382.090579 65.143755 
L 385.369917 65.143755 
L 388.649256 65.143755 
L 391.928595 65.143755 
L 395.207934 65.143755 
L 398.487273 65.143755 
" clip-path="url(#pf1809fb115)" style="fill: none; stroke: #1f77b4; stroke-width: 1.5; stroke-linecap: square"/>
   </g>
   <g id="line2d_32">
    <path d="M 73.832727 89.915376 
L 77.112066 91.074849 
L 80.391405 92.321864 
L 83.670744 93.665965 
L 86.950083 95.118116 
L 90.229421 96.690978 
L 93.50876 98.399249 
L 96.788099 100.260111 
L 100.067438 102.293781 
L 103.346777 104.524238 
L 106.626116 106.980169 
L 109.905455 109.696235 
L 113.184793 112.714788 
L 116.464132 116.088248 
L 119.743471 119.882479 
L 123.02281 124.181727 
L 126.302149 129.096063 
L 129.581488 134.773098 
L 132.860826 141.41734 
L 136.140165 149.32424 
L 139.419504 158.945146 
L 142.698843 171.02558 
L 145.978182 186.94858 
L 149.257521 209.774505 
L 152.53686 247.361364 
L 155.816198 295.488 
L 159.095537 271.206245 
L 162.374876 260.01641 
L 165.654215 254.331858 
L 168.933554 250.967953 
L 172.212893 248.795885 
L 175.492231 247.319369 
L 178.77157 246.282662 
L 182.050909 245.5395 
L 185.330248 244.999884 
L 188.609587 244.605351 
L 191.888926 244.316308 
L 195.168264 244.105044 
L 198.447603 243.951643 
L 201.726942 243.841481 
L 205.006281 243.763634 
L 208.28562 243.70983 
L 211.564959 243.673738 
L 214.844298 243.650484 
L 218.123636 243.636304 
L 221.402975 243.628302 
L 224.682314 243.624275 
L 227.961653 243.622586 
L 231.240992 243.622075 
L 234.520331 243.622 
L 237.799669 243.622 
L 241.079008 243.622075 
L 244.358347 243.622586 
L 247.637686 243.624275 
L 250.917025 243.628302 
L 254.196364 243.636304 
L 257.475702 243.650484 
L 260.755041 243.673738 
L 264.03438 243.70983 
L 267.313719 243.763634 
L 270.593058 243.841481 
L 273.872397 243.951643 
L 277.151736 244.105044 
L 280.431074 244.316308 
L 283.710413 244.605351 
L 286.989752 244.999884 
L 290.269091 245.5395 
L 293.54843 246.282662 
L 296.827769 247.319369 
L 300.107107 248.795885 
L 303.386446 250.967953 
L 306.665785 254.331858 
L 309.945124 260.01641 
L 313.224463 271.206245 
L 316.503802 295.488 
L 319.78314 247.361364 
L 323.062479 209.774505 
L 326.341818 186.94858 
L 329.621157 171.02558 
L 332.900496 158.945146 
L 336.179835 149.32424 
L 339.459174 141.41734 
L 342.738512 134.773098 
L 346.017851 129.096063 
L 349.29719 124.181727 
L 352.576529 119.882479 
L 355.855868 116.088248 
L 359.135207 112.714788 
L 362.414545 109.696235 
L 365.693884 106.980169 
L 368.973223 104.524238 
L 372.252562 102.293781 
L 375.531901 100.260111 
L 378.81124 98.399249 
L 382.090579 96.690978 
L 385.369917 95.118116 
L 388.649256 93.665965 
L 391.928595 92.321864 
L 395.207934 91.074849 
L 398.487273 89.915376 
" clip-path="url(#pf1809fb115)" style="fill: none; stroke: #aec7e8; stroke-width: 1.5; stroke-linecap: square"/>
   </g>
   <g id="line2d_33">
    <path d="M 73.832727 65.141454 
L 77.112066 65.140978 
L 80.391405 65.140386 
L 83.670744 65.139644 
L 86.950083 65.138709 
L 90.229421 65.137521 
L 93.50876 65.136 
L 96.788099 65.134033 
L 100.067438 65.131469 
L 103.346777 65.128088 
L 106.626116 65.123582 
L 109.905455 65.117496 
L 113.184793 65.109162 
L 116.464132 65.097567 
L 119.743471 65.081138 
L 123.02281 65.057375 
L 126.302149 65.022159 
L 129.581488 64.968448 
L 132.860826 64.883628 
L 136.140165 64.743758 
L 139.419504 64.499977 
L 142.698843 64.042755 
L 145.978182 63.093205 
L 149.257521 60.78742 
L 152.53686 53.568 
L 155.816198 131.580609 
L 159.095537 187.403708 
L 162.374876 210.71502 
L 165.654215 222.185117 
L 168.933554 228.926334 
L 172.212893 233.273085 
L 175.492231 236.226858 
L 178.77157 238.300525 
L 182.050909 239.786941 
L 185.330248 240.866209 
L 188.609587 241.655288 
L 191.888926 242.233378 
L 195.168264 242.655908 
L 198.447603 242.962711 
L 201.726942 243.183035 
L 205.006281 243.338728 
L 208.28562 243.446337 
L 211.564959 243.518521 
L 214.844298 243.56503 
L 218.123636 243.59339 
L 221.402975 243.609393 
L 224.682314 243.617447 
L 227.961653 243.620826 
L 231.240992 243.621848 
L 234.520331 243.621997 
L 237.799669 243.621997 
L 241.079008 243.621848 
L 244.358347 243.620826 
L 247.637686 243.617447 
L 250.917025 243.609393 
L 254.196364 243.59339 
L 257.475702 243.56503 
L 260.755041 243.518521 
L 264.03438 243.446337 
L 267.313719 243.338728 
L 270.593058 243.183035 
L 273.872397 242.962711 
L 277.151736 242.655908 
L 280.431074 242.233378 
L 283.710413 241.655288 
L 286.989752 240.866209 
L 290.269091 239.786941 
L 293.54843 238.300525 
L 296.827769 236.226858 
L 300.107107 233.273085 
L 303.386446 228.926334 
L 306.665785 222.185117 
L 309.945124 210.71502 
L 313.224463 187.403708 
L 316.503802 131.580609 
L 319.78314 53.568 
L 323.062479 60.78742 
L 326.341818 63.093205 
L 329.621157 64.042755 
L 332.900496 64.499977 
L 336.179835 64.743758 
L 339.459174 64.883628 
L 342.738512 64.968448 
L 346.017851 65.022159 
L 349.29719 65.057375 
L 352.576529 65.081138 
L 355.855868 65.097567 
L 359.135207 65.109162 
L 362.414545 65.117496 
L 365.693884 65.123582 
L 368.973223 65.128088 
L 372.252562 65.131469 
L 375.531901 65.134033 
L 378.81124 65.136 
L 382.090579 65.137521 
L 385.369917 65.138709 
L 388.649256 65.139644 
L 391.928595 65.140386 
L 395.207934 65.140978 
L 398.487273 65.141454 
" clip-path="url(#pf1809fb115)" style="fill: none; stroke: #ff7f0e; stroke-width: 1.5; stroke-linecap: square"/>
   </g>
   <g id="line2d_34">
    <path d="M 73.832727 65.146056 
L 77.112066 65.146532 
L 80.391405 65.147124 
L 83.670744 65.147865 
L 86.950083 65.1488 
L 90.229421 65.149988 
L 93.50876 65.15151 
L 96.788099 65.153476 
L 100.067438 65.156041 
L 103.346777 65.159421 
L 106.626116 65.163928 
L 109.905455 65.170013 
L 113.184793 65.178347 
L 116.464132 65.189943 
L 119.743471 65.206371 
L 123.02281 65.230135 
L 126.302149 65.265354 
L 129.581488 65.319073 
L 132.860826 65.403942 
L 136.140165 65.544092 
L 139.419504 65.7896 
L 142.698843 66.258414 
L 145.978182 67.29273 
L 149.257521 70.257808 
L 152.53686 82.08498 
L 155.816198 237.605486 
L 159.095537 242.667683 
L 162.374876 243.584327 
L 165.654215 243.639111 
L 168.933554 243.630469 
L 172.212893 243.625215 
L 175.492231 243.623191 
L 178.77157 243.622444 
L 182.050909 243.622165 
L 185.330248 243.622061 
L 188.609587 243.622021 
L 191.888926 243.622007 
L 195.168264 243.622002 
L 198.447603 243.622 
L 201.726942 243.621999 
L 205.006281 243.621999 
L 208.28562 243.621999 
L 211.564959 243.621999 
L 214.844298 243.621999 
L 218.123636 243.621999 
L 221.402975 243.621999 
L 224.682314 243.621999 
L 227.961653 243.621999 
L 231.240992 243.621999 
L 234.520331 243.621999 
L 237.799669 243.621999 
L 241.079008 243.621999 
L 244.358347 243.621999 
L 247.637686 243.621999 
L 250.917025 243.621999 
L 254.196364 243.621999 
L 257.475702 243.621999 
L 260.755041 243.621999 
L 264.03438 243.621999 
L 267.313719 243.621999 
L 270.593058 243.621999 
L 273.872397 243.622 
L 277.151736 243.622002 
L 280.431074 243.622007 
L 283.710413 243.622021 
L 286.989752 243.622061 
L 290.269091 243.622165 
L 293.54843 243.622444 
L 296.827769 243.623191 
L 300.107107 243.625215 
L 303.386446 243.630469 
L 306.665785 243.639111 
L 309.945124 243.584327 
L 313.224463 242.667683 
L 316.503802 237.605486 
L 319.78314 82.08498 
L 323.062479 70.257808 
L 326.341818 67.29273 
L 329.621157 66.258414 
L 332.900496 65.7896 
L 336.179835 65.544092 
L 339.459174 65.403942 
L 342.738512 65.319073 
L 346.017851 65.265354 
L 349.29719 65.230135 
L 352.576529 65.206371 
L 355.855868 65.189943 
L 359.135207 65.178347 
L 362.414545 65.170013 
L 365.693884 65.163928 
L 368.973223 65.159421 
L 372.252562 65.156041 
L 375.531901 65.153476 
L 378.81124 65.15151 
L 382.090579 65.149988 
L 385.369917 65.1488 
L 388.649256 65.147865 
L 391.928595 65.147124 
L 395.207934 65.146532 
L 398.487273 65.146056 
" clip-path="url(#pf1809fb115)" style="fill: none; stroke: #ffbb78; stroke-width: 1.5; stroke-linecap: square"/>
   </g>
   <g id="line2d_35">
    <path d="M 73.832727 65.143755 
L 77.112066 65.143755 
L 80.391405 65.143755 
L 83.670744 65.143755 
L 86.950083 65.143755 
L 90.229421 65.143755 
L 93.50876 65.143755 
L 96.788099 65.143755 
L 100.067438 65.143755 
L 103.346777 65.143755 
L 106.626116 65.143755 
L 109.905455 65.143755 
L 113.184793 65.143755 
L 116.464132 65.143755 
L 119.743471 65.143755 
L 123.02281 65.143755 
L 126.302149 65.143755 
L 129.581488 65.143759 
L 132.860826 65.143786 
L 136.140165 65.143959 
L 139.419504 65.145115 
L 142.698843 65.153446 
L 145.978182 65.219384 
L 149.257521 65.78832 
L 152.53686 70.420817 
L 155.816198 226.891526 
L 159.095537 241.338444 
L 162.374876 243.379108 
L 165.654215 243.588645 
L 168.933554 243.614674 
L 172.212893 243.619737 
L 175.492231 243.621197 
L 178.77157 243.621702 
L 182.050909 243.621888 
L 185.330248 243.621958 
L 188.609587 243.621984 
L 191.888926 243.621994 
L 195.168264 243.621997 
L 198.447603 243.621999 
L 201.726942 243.621999 
L 205.006281 243.621999 
L 208.28562 243.621999 
L 211.564959 243.621999 
L 214.844298 243.621999 
L 218.123636 243.621999 
L 221.402975 243.621999 
L 224.682314 243.621999 
L 227.961653 243.621999 
L 231.240992 243.621999 
L 234.520331 243.621999 
L 237.799669 243.621999 
L 241.079008 243.621999 
L 244.358347 243.621999 
L 247.637686 243.621999 
L 250.917025 243.621999 
L 254.196364 243.621999 
L 257.475702 243.621999 
L 260.755041 243.621999 
L 264.03438 243.621999 
L 267.313719 243.621999 
L 270.593058 243.621999 
L 273.872397 243.621999 
L 277.151736 243.621997 
L 280.431074 243.621994 
L 283.710413 243.621984 
L 286.989752 243.621958 
L 290.269091 243.621888 
L 293.54843 243.621702 
L 296.827769 243.621197 
L 300.107107 243.619737 
L 303.386446 243.614674 
L 306.665785 243.588645 
L 309.945124 243.379108 
L 313.224463 241.338444 
L 316.503802 226.891526 
L 319.78314 70.420817 
L 323.062479 65.78832 
L 326.341818 65.219384 
L 329.621157 65.153446 
L 332.900496 65.145115 
L 336.179835 65.143959 
L 339.459174 65.143786 
L 342.738512 65.143759 
L 346.017851 65.143755 
L 349.29719 65.143755 
L 352.576529 65.143755 
L 355.855868 65.143755 
L 359.135207 65.143755 
L 362.414545 65.143755 
L 365.693884 65.143755 
L 368.973223 65.143755 
L 372.252562 65.143755 
L 375.531901 65.143755 
L 378.81124 65.143755 
L 382.090579 65.143755 
L 385.369917 65.143755 
L 388.649256 65.143755 
L 391.928595 65.143755 
L 395.207934 65.143755 
L 398.487273 65.143755 
" clip-path="url(#pf1809fb115)" style="fill: none; stroke: #2ca02c; stroke-width: 1.5; stroke-linecap: square"/>
   </g>
   <g id="patch_3">
    <path d="M 57.6 307.584 
L 57.6 41.472 
" style="fill: none; stroke: #000000; stroke-width: 0.8; stroke-linejoin: miter; stroke-linecap: square"/>
   </g>
   <g id="patch_4">
    <path d="M 414.72 307.584 
L 414.72 41.472 
" style="fill: none; stroke: #000000; stroke-width: 0.8; stroke-linejoin: miter; stroke-linecap: square"/>
   </g>
   <g id="patch_5">
    <path d="M 57.6 307.584 
L 414.72 307.584 
" style="fill: none; stroke: #000000; stroke-width: 0.8; stroke-linejoin: miter; stroke-linecap: square"/>
   </g>
   <g id="patch_6">
    <path d="M 57.6 41.472 
L 414.72 41.472 
" style="fill: none; stroke: #000000; stroke-width: 0.8; stroke-linejoin: miter; stroke-linecap: square"/>
   </g>
   <g id="legend_1">
    <g id="patch_7">
     <path d="M 172.323047 131.001688 
L 299.996953 131.001688 
Q 302.196953 131.001688 302.196953 128.801688 
L 302.196953 49.172 
Q 302.196953 46.972 299.996953 46.972 
L 172.323047 46.972 
Q 170.123047 46.972 170.123047 49.172 
L 170.123047 128.801688 
Q 170.123047 131.001688 172.323047 131.001688 
z
" style="fill: #ffffff; opacity: 0.8; stroke: #cccccc; stroke-linejoin: miter"/>
    </g>
    <g id="line2d_36">
     <path d="M 174.523047 55.880281 
L 185.523047 55.880281 
L 196.523047 55.880281 
" style="fill: none; stroke: #1f77b4; stroke-width: 1.5; stroke-linecap: square"/>
    </g>
    <g id="text_17">
     <!-- Global Index -->
     <g transform="translate(205.323047 59.730281) scale(0.11 -0.11)">
      <defs>
       <path id="DejaVuSans-47" d="M 3809 666 
L 3809 1919 
L 2778 1919 
L 2778 2438 
L 4434 2438 
L 4434 434 
Q 4069 175 3628 42 
Q 3188 -91 2688 -91 
Q 1594 -91 976 548 
Q 359 1188 359 2328 
Q 359 3472 976 4111 
Q 1594 4750 2688 4750 
Q 3144 4750 3555 4637 
Q 3966 4525 4313 4306 
L 4313 3634 
Q 3963 3931 3569 4081 
Q 3175 4231 2741 4231 
Q 1884 4231 1454 3753 
Q 1025 3275 1025 2328 
Q 1025 1384 1454 906 
Q 1884 428 2741 428 
Q 3075 428 3337 486 
Q 3600 544 3809 666 
z
" transform="scale(0.015625)"/>
       <path id="DejaVuSans-6c" d="M 603 4863 
L 1178 4863 
L 1178 0 
L 603 0 
L 603 4863 
z
" transform="scale(0.015625)"/>
       <path id="DejaVuSans-6f" d="M 1959 3097 
Q 1497 3097 1228 2736 
Q 959 2375 959 1747 
Q 959 1119 1226 758 
Q 1494 397 1959 397 
Q 2419 397 2687 759 
Q 2956 1122 2956 1747 
Q 2956 2369 2687 2733 
Q 2419 3097 1959 3097 
z
M 1959 3584 
Q 2709 3584 3137 3096 
Q 3566 2609 3566 1747 
Q 3566 888 3137 398 
Q 2709 -91 1959 -91 
Q 1206 -91 779 398 
Q 353 888 353 1747 
Q 353 2609 779 3096 
Q 1206 3584 1959 3584 
z
" transform="scale(0.015625)"/>
       <path id="DejaVuSans-62" d="M 3116 1747 
Q 3116 2381 2855 2742 
Q 2594 3103 2138 3103 
Q 1681 3103 1420 2742 
Q 1159 2381 1159 1747 
Q 1159 1113 1420 752 
Q 1681 391 2138 391 
Q 2594 391 2855 752 
Q 3116 1113 3116 1747 
z
M 1159 2969 
Q 1341 3281 1617 3432 
Q 1894 3584 2278 3584 
Q 2916 3584 3314 3078 
Q 3713 2572 3713 1747 
Q 3713 922 3314 415 
Q 2916 -91 2278 -91 
Q 1894 -91 1617 61 
Q 1341 213 1159 525 
L 1159 0 
L 581 0 
L 581 4863 
L 1159 4863 
L 1159 2969 
z
" transform="scale(0.015625)"/>
       <path id="DejaVuSans-61" d="M 2194 1759 
Q 1497 1759 1228 1600 
Q 959 1441 959 1056 
Q 959 750 1161 570 
Q 1363 391 1709 391 
Q 2188 391 2477 730 
Q 2766 1069 2766 1631 
L 2766 1759 
L 2194 1759 
z
M 3341 1997 
L 3341 0 
L 2766 0 
L 2766 531 
Q 2569 213 2275 61 
Q 1981 -91 1556 -91 
Q 1019 -91 701 211 
Q 384 513 384 1019 
Q 384 1609 779 1909 
Q 1175 2209 1959 2209 
L 2766 2209 
L 2766 2266 
Q 2766 2663 2505 2880 
Q 2244 3097 1772 3097 
Q 1472 3097 1187 3025 
Q 903 2953 641 2809 
L 641 3341 
Q 956 3463 1253 3523 
Q 1550 3584 1831 3584 
Q 2591 3584 2966 3190 
Q 3341 2797 3341 1997 
z
" transform="scale(0.015625)"/>
       <path id="DejaVuSans-20" transform="scale(0.015625)"/>
       <path id="DejaVuSans-49" d="M 628 4666 
L 1259 4666 
L 1259 0 
L 628 0 
L 628 4666 
z
" transform="scale(0.015625)"/>
       <path id="DejaVuSans-6e" d="M 3513 2113 
L 3513 0 
L 2938 0 
L 2938 2094 
Q 2938 2591 2744 2837 
Q 2550 3084 2163 3084 
Q 1697 3084 1428 2787 
Q 1159 2491 1159 1978 
L 1159 0 
L 581 0 
L 581 3500 
L 1159 3500 
L 1159 2956 
Q 1366 3272 1645 3428 
Q 1925 3584 2291 3584 
Q 2894 3584 3203 3211 
Q 3513 2838 3513 2113 
z
" transform="scale(0.015625)"/>
       <path id="DejaVuSans-64" d="M 2906 2969 
L 2906 4863 
L 3481 4863 
L 3481 0 
L 2906 0 
L 2906 525 
Q 2725 213 2448 61 
Q 2172 -91 1784 -91 
Q 1150 -91 751 415 
Q 353 922 353 1747 
Q 353 2572 751 3078 
Q 1150 3584 1784 3584 
Q 2172 3584 2448 3432 
Q 2725 3281 2906 2969 
z
M 947 1747 
Q 947 1113 1208 752 
Q 1469 391 1925 391 
Q 2381 391 2643 752 
Q 2906 1113 2906 1747 
Q 2906 2381 2643 2742 
Q 2381 3103 1925 3103 
Q 1469 3103 1208 2742 
Q 947 2381 947 1747 
z
" transform="scale(0.015625)"/>
       <path id="DejaVuSans-65" d="M 3597 1894 
L 3597 1613 
L 953 1613 
Q 991 1019 1311 708 
Q 1631 397 2203 397 
Q 2534 397 2845 478 
Q 3156 559 3463 722 
L 3463 178 
Q 3153 47 2828 -22 
Q 2503 -91 2169 -91 
Q 1331 -91 842 396 
Q 353 884 353 1716 
Q 353 2575 817 3079 
Q 1281 3584 2069 3584 
Q 2775 3584 3186 3129 
Q 3597 2675 3597 1894 
z
M 3022 2063 
Q 3016 2534 2758 2815 
Q 2500 3097 2075 3097 
Q 1594 3097 1305 2825 
Q 1016 2553 972 2059 
L 3022 2063 
z
" transform="scale(0.015625)"/>
       <path id="DejaVuSans-78" d="M 3513 3500 
L 2247 1797 
L 3578 0 
L 2900 0 
L 1881 1375 
L 863 0 
L 184 0 
L 1544 1831 
L 300 3500 
L 978 3500 
L 1906 2253 
L 2834 3500 
L 3513 3500 
z
" transform="scale(0.015625)"/>
      </defs>
      <use xlink:href="#DejaVuSans-47"/>
      <use xlink:href="#DejaVuSans-6c" transform="translate(77.490234 0)"/>
      <use xlink:href="#DejaVuSans-6f" transform="translate(105.273438 0)"/>
      <use xlink:href="#DejaVuSans-62" transform="translate(166.455078 0)"/>
      <use xlink:href="#DejaVuSans-61" transform="translate(229.931641 0)"/>
      <use xlink:href="#DejaVuSans-6c" transform="translate(291.210938 0)"/>
      <use xlink:href="#DejaVuSans-20" transform="translate(318.994141 0)"/>
      <use xlink:href="#DejaVuSans-49" transform="translate(350.78125 0)"/>
      <use xlink:href="#DejaVuSans-6e" transform="translate(380.273438 0)"/>
      <use xlink:href="#DejaVuSans-64" transform="translate(443.652344 0)"/>
      <use xlink:href="#DejaVuSans-65" transform="translate(507.128906 0)"/>
      <use xlink:href="#DejaVuSans-78" transform="translate(566.902344 0)"/>
     </g>
    </g>
    <g id="line2d_37">
     <path d="M 174.523047 72.026219 
L 185.523047 72.026219 
L 196.523047 72.026219 
" style="fill: none; stroke: #aec7e8; stroke-width: 1.5; stroke-linecap: square"/>
    </g>
    <g id="text_18">
     <!-- Local Index, n=1 -->
     <g transform="translate(205.323047 75.876219) scale(0.11 -0.11)">
      <defs>
       <path id="DejaVuSans-4c" d="M 628 4666 
L 1259 4666 
L 1259 531 
L 3531 531 
L 3531 0 
L 628 0 
L 628 4666 
z
" transform="scale(0.015625)"/>
       <path id="DejaVuSans-63" d="M 3122 3366 
L 3122 2828 
Q 2878 2963 2633 3030 
Q 2388 3097 2138 3097 
Q 1578 3097 1268 2742 
Q 959 2388 959 1747 
Q 959 1106 1268 751 
Q 1578 397 2138 397 
Q 2388 397 2633 464 
Q 2878 531 3122 666 
L 3122 134 
Q 2881 22 2623 -34 
Q 2366 -91 2075 -91 
Q 1284 -91 818 406 
Q 353 903 353 1747 
Q 353 2603 823 3093 
Q 1294 3584 2113 3584 
Q 2378 3584 2631 3529 
Q 2884 3475 3122 3366 
z
" transform="scale(0.015625)"/>
       <path id="DejaVuSans-2c" d="M 750 794 
L 1409 794 
L 1409 256 
L 897 -744 
L 494 -744 
L 750 256 
L 750 794 
z
" transform="scale(0.015625)"/>
       <path id="DejaVuSans-3d" d="M 678 2906 
L 4684 2906 
L 4684 2381 
L 678 2381 
L 678 2906 
z
M 678 1631 
L 4684 1631 
L 4684 1100 
L 678 1100 
L 678 1631 
z
" transform="scale(0.015625)"/>
      </defs>
      <use xlink:href="#DejaVuSans-4c"/>
      <use xlink:href="#DejaVuSans-6f" transform="translate(53.962891 0)"/>
      <use xlink:href="#DejaVuSans-63" transform="translate(115.144531 0)"/>
      <use xlink:href="#DejaVuSans-61" transform="translate(170.125 0)"/>
      <use xlink:href="#DejaVuSans-6c" transform="translate(231.404297 0)"/>
      <use xlink:href="#DejaVuSans-20" transform="translate(259.1875 0)"/>
      <use xlink:href="#DejaVuSans-49" transform="translate(290.974609 0)"/>
      <use xlink:href="#DejaVuSans-6e" transform="translate(320.466797 0)"/>
      <use xlink:href="#DejaVuSans-64" transform="translate(383.845703 0)"/>
      <use xlink:href="#DejaVuSans-65" transform="translate(447.322266 0)"/>
      <use xlink:href="#DejaVuSans-78" transform="translate(507.095703 0)"/>
      <use xlink:href="#DejaVuSans-2c" transform="translate(566.275391 0)"/>
      <use xlink:href="#DejaVuSans-20" transform="translate(598.0625 0)"/>
      <use xlink:href="#DejaVuSans-6e" transform="translate(629.849609 0)"/>
      <use xlink:href="#DejaVuSans-3d" transform="translate(693.228516 0)"/>
      <use xlink:href="#DejaVuSans-31" transform="translate(777.017578 0)"/>
     </g>
    </g>
    <g id="line2d_38">
     <path d="M 174.523047 88.172156 
L 185.523047 88.172156 
L 196.523047 88.172156 
" style="fill: none; stroke: #ff7f0e; stroke-width: 1.5; stroke-linecap: square"/>
    </g>
    <g id="text_19">
     <!-- Local Index, n=2 -->
     <g transform="translate(205.323047 92.022156) scale(0.11 -0.11)">
      <use xlink:href="#DejaVuSans-4c"/>
      <use xlink:href="#DejaVuSans-6f" transform="translate(53.962891 0)"/>
      <use xlink:href="#DejaVuSans-63" transform="translate(115.144531 0)"/>
      <use xlink:href="#DejaVuSans-61" transform="translate(170.125 0)"/>
      <use xlink:href="#DejaVuSans-6c" transform="translate(231.404297 0)"/>
      <use xlink:href="#DejaVuSans-20" transform="translate(259.1875 0)"/>
      <use xlink:href="#DejaVuSans-49" transform="translate(290.974609 0)"/>
      <use xlink:href="#DejaVuSans-6e" transform="translate(320.466797 0)"/>
      <use xlink:href="#DejaVuSans-64" transform="translate(383.845703 0)"/>
      <use xlink:href="#DejaVuSans-65" transform="translate(447.322266 0)"/>
      <use xlink:href="#DejaVuSans-78" transform="translate(507.095703 0)"/>
      <use xlink:href="#DejaVuSans-2c" transform="translate(566.275391 0)"/>
      <use xlink:href="#DejaVuSans-20" transform="translate(598.0625 0)"/>
      <use xlink:href="#DejaVuSans-6e" transform="translate(629.849609 0)"/>
      <use xlink:href="#DejaVuSans-3d" transform="translate(693.228516 0)"/>
      <use xlink:href="#DejaVuSans-32" transform="translate(777.017578 0)"/>
     </g>
    </g>
    <g id="line2d_39">
     <path d="M 174.523047 104.318094 
L 185.523047 104.318094 
L 196.523047 104.318094 
" style="fill: none; stroke: #ffbb78; stroke-width: 1.5; stroke-linecap: square"/>
    </g>
    <g id="text_20">
     <!-- Local Index, n=3 -->
     <g transform="translate(205.323047 108.168094) scale(0.11 -0.11)">
      <use xlink:href="#DejaVuSans-4c"/>
      <use xlink:href="#DejaVuSans-6f" transform="translate(53.962891 0)"/>
      <use xlink:href="#DejaVuSans-63" transform="translate(115.144531 0)"/>
      <use xlink:href="#DejaVuSans-61" transform="translate(170.125 0)"/>
      <use xlink:href="#DejaVuSans-6c" transform="translate(231.404297 0)"/>
      <use xlink:href="#DejaVuSans-20" transform="translate(259.1875 0)"/>
      <use xlink:href="#DejaVuSans-49" transform="translate(290.974609 0)"/>
      <use xlink:href="#DejaVuSans-6e" transform="translate(320.466797 0)"/>
      <use xlink:href="#DejaVuSans-64" transform="translate(383.845703 0)"/>
      <use xlink:href="#DejaVuSans-65" transform="translate(447.322266 0)"/>
      <use xlink:href="#DejaVuSans-78" transform="translate(507.095703 0)"/>
      <use xlink:href="#DejaVuSans-2c" transform="translate(566.275391 0)"/>
      <use xlink:href="#DejaVuSans-20" transform="translate(598.0625 0)"/>
      <use xlink:href="#DejaVuSans-6e" transform="translate(629.849609 0)"/>
      <use xlink:href="#DejaVuSans-3d" transform="translate(693.228516 0)"/>
      <use xlink:href="#DejaVuSans-33" transform="translate(777.017578 0)"/>
     </g>
    </g>
    <g id="line2d_40">
     <path d="M 174.523047 120.464031 
L 185.523047 120.464031 
L 196.523047 120.464031 
" style="fill: none; stroke: #2ca02c; stroke-width: 1.5; stroke-linecap: square"/>
    </g>
    <g id="text_21">
     <!-- Local Index, n=4 -->
     <g transform="translate(205.323047 124.314031) scale(0.11 -0.11)">
      <use xlink:href="#DejaVuSans-4c"/>
      <use xlink:href="#DejaVuSans-6f" transform="translate(53.962891 0)"/>
      <use xlink:href="#DejaVuSans-63" transform="translate(115.144531 0)"/>
      <use xlink:href="#DejaVuSans-61" transform="translate(170.125 0)"/>
      <use xlink:href="#DejaVuSans-6c" transform="translate(231.404297 0)"/>
      <use xlink:href="#DejaVuSans-20" transform="translate(259.1875 0)"/>
      <use xlink:href="#DejaVuSans-49" transform="translate(290.974609 0)"/>
      <use xlink:href="#DejaVuSans-6e" transform="translate(320.466797 0)"/>
      <use xlink:href="#DejaVuSans-64" transform="translate(383.845703 0)"/>
      <use xlink:href="#DejaVuSans-65" transform="translate(447.322266 0)"/>
      <use xlink:href="#DejaVuSans-78" transform="translate(507.095703 0)"/>
      <use xlink:href="#DejaVuSans-2c" transform="translate(566.275391 0)"/>
      <use xlink:href="#DejaVuSans-20" transform="translate(598.0625 0)"/>
      <use xlink:href="#DejaVuSans-6e" transform="translate(629.849609 0)"/>
      <use xlink:href="#DejaVuSans-3d" transform="translate(693.228516 0)"/>
      <use xlink:href="#DejaVuSans-34" transform="translate(777.017578 0)"/>
     </g>
    </g>
   </g>
  </g>
 </g>
 <defs>
  <clipPath id="pf1809fb115">
   <rect x="57.6" y="41.472" width="357.12" height="266.112"/>
  </clipPath>
 </defs>
</svg>
